<svg height="512pt" viewBox="0 -35 512 512" width="512pt" xmlns="http://www.w3.org/2000/svg"><path d="M512 0H256l-20.016 297.254L512 277.234zm0 0" fill="#03232e"/><path d="M0 0v277.234l256 20.02V0zm0 0" fill="#07485e"/><path d="M341.047 426.07v-63.789l-105.063-20.015L256 426.07zm0 0" fill="#87a0af"/><path d="M170.953 426.07H256v-83.804l-85.047 20.015zm0 0" fill="#b4d2d7"/><path d="M388.887 441.066v-30H256l-10.008 15 10.008 15zm0 0" fill="#b4d2d7"/><path d="M123.113 411.066H256v30H123.113zm0 0" fill="#e1ebf0"/><path d="M256 277.234l-20.016 42.528L256 362.282h256v-85.048zm0 0" fill="#b4d2d7"/><path d="M0 277.234h256v85.047H0zm0 0" fill="#e1ebf0"/><path d="M183.828 224.633l-67.683-86.016 67.683-86.015 23.574 18.55-53.082 67.465 53.082 67.465zm0 0" fill="#fff5f5"/><path d="M328.172 224.633l-23.574-18.551 53.082-67.465-53.082-67.465 23.574-18.55 67.683 86.015zm0 0" fill="#efe2dd"/><path d="M241 52.645h30V224.59h-30zm0 0" fill="#fff5f5"/></svg>