<svg viewBox="0 0 469.491 432.344" xmlns="http://www.w3.org/2000/svg"><path d="M259.25 366.46s165.55-149.99 203.74-23.961M243.65 297.81s165.55-149.99 203.74-23.961M243.65 238.52S409.2 88.53 447.39 214.559" fill="none" stroke="#000" stroke-linecap="round" stroke-width="12.997"/><path d="M242.95 232.11c0 44.586 2.38 129.62 0 173.41-.389 31.455 55.746 15.479 88.35-29.173 34.812-26.273 43.798-143.83 27.443-143.44-37.012-7.137-84.333-7.137-115.79-.793z" fill="#f6c92b"/><path d="M210.24 357.09S44.69 207.1 6.5 333.129m206.86-38.439S47.81 144.7 9.62 270.729" fill="none" stroke="#000" stroke-linecap="round" stroke-width="12.997"/><path d="M110.06 233.64c-21.707 43.963 2.893 128.38 37.652 155.37 27.229 24.801 28.541 31.341 61.662 33.424 44.868-36.451 30.972-37.856 28.816-91.148v-97.643c-45.089-7.93-83.833-8.723-128.13 0z" fill="#799ccf"/><path d="M230.74 51.96c-45.658 0-82.73 27.594-82.73 61.59 0 8.653 2.426 16.867 6.758 24.34l80.773 42.012 72.743-44.935c3.332-6.676 5.153-13.88 5.153-21.417 0-33.996-37.039-61.59-82.696-61.59z" stroke="#000" stroke-linejoin="round" stroke-width=".601"/><path d="M211.87 120.36S167.179-28.71 75.92 23.371M248.57 115s44.691-149.07 135.95-96.989" fill="none" stroke="#000" stroke-linecap="round" stroke-width="13.929"/><path d="M220.16 226.46S54.61 76.47 16.42 202.499" fill="none" stroke="#000" stroke-linecap="round" stroke-width="12.997"/><path d="M370.02 245.09c1.218 12.114 1.669 30.557-77.806 5.18-17.08-5.454-44.479 6.302-50.961 7.822-15.051 3.53-20.669-67.784-20.669-80.569 0-25.569-36.491-46.645-.632-46.645 17.929 0 62.745 2.834 94.189 26.195s54.662 75.902 55.88 88.016z" fill="#76b76b"/><path d="M235.52 258.8c.4 9.08-31.104 9.294-55.137 10.358-35.996 1.593-82.771 17.405-83.171 15.24-3.768-20.421 20.23-98.469 65.557-128.11 31.438-20.562 56.547-30.044 57.139-20.335.87 14.269 3.499 34.298 3.924 42.165.368 6.808 8.493 59.126 11.688 80.686z" fill="#ee8d49"/><path d="M211.797 193.643c-5.507 13.57-20.664 21.857-33.853 18.51s-19.416-17.06-13.908-30.63 20.664-21.857 33.853-18.51 19.416 17.06 13.908 30.63zm91.218-8.298c2.552 13.464-6.21 25.622-19.572 27.158s-26.262-8.134-28.814-21.598 6.21-25.622 19.571-27.158 26.262 8.135 28.815 21.598z" fill="#fff"/><path d="M220.18 136.15c46.806 277.72 12.482 271.48 12.482 271.48" fill="none" stroke="#000" stroke-linecap="round" stroke-width="11.795"/><path d="M214.544 263.72c0 14.98-11.25 27.123-25.127 27.123S164.29 278.7 164.29 263.72s11.25-27.123 25.127-27.123 25.127 12.143 25.127 27.123z" fill="#000001"/><path d="M167.78 319.428c0 15.698-11.25 28.423-25.127 28.423s-25.127-12.725-25.127-28.423 11.25-28.423 25.127-28.423 25.127 12.725 25.127 28.423zm51.524 51.304c0 13.306-10.28 24.093-22.962 24.093s-22.962-10.787-22.962-24.093 10.28-24.093 22.962-24.093 22.962 10.787 22.962 24.093zm85.166-4.224c0 15.698-11.25 28.423-25.127 28.423s-25.127-12.725-25.127-28.423 11.25-28.423 25.127-28.423 25.127 12.725 25.127 28.423zm47.59-54.204c0 15.698-11.25 28.423-25.127 28.423s-25.127-12.725-25.127-28.423 11.25-28.423 25.127-28.423 25.127 12.725 25.127 28.423zm-48.734-47.809c0 14.501-11.056 26.257-24.694 26.257s-24.694-11.756-24.694-26.257 11.055-26.257 24.694-26.257 24.694 11.755 24.694 26.257z"/><path d="M234.75 129.55C159.811 129.55 99 196.605 99 279.22c0 72.916 47.371 133.7 110.02 146.97l26.113-20.575 21.676 21.296c64.461-11.627 113.7-73.352 113.7-147.69 0-82.616-60.815-149.67-135.75-149.67z" fill="none" stroke="#000" stroke-linecap="round" stroke-linejoin="round" stroke-width="10.881"/></svg>