<svg xmlns="http://www.w3.org/2000/svg" viewBox="0 0 491.52 491.52"><circle cx="245.76" cy="245.76" r="245.76" fill="#ea8953"/><path d="M379.718 104.96H111.804a6.844 6.844 0 00-6.844 6.843v40.031h281.6v-40.031a6.843 6.843 0 00-6.842-6.843z" fill="#3a556a"/><circle cx="314.266" cy="128.41" r="7.731" fill="#fcd462"/><circle cx="341.837" cy="128.41" r="7.731" fill="#44c4a1"/><circle cx="369.408" cy="128.41" r="7.731" fill="#e56353"/><path d="M166.488 146.714h47.71l-2.808-8.304a3.36 3.36 0 00-3.184-2.284h-45.422c.099.226.259.411.339.648l3.365 9.94z" fill="#ebf0f3"/><path d="M386.56 151.834H165.224a3.363 3.363 0 01-3.184-2.284l-3.766-11.14a3.36 3.36 0 00-3.184-2.284h-34.81a3.36 3.36 0 00-3.184 2.284l-3.766 11.14a3.363 3.363 0 01-3.184 2.284h-5.186v23.453h281.6v-23.453z" fill="#64798a"/><path d="M104.96 379.717a6.843 6.843 0 006.842 6.843h267.915a6.843 6.843 0 006.842-6.843v-204.43h-281.6v204.43zm51.165-213.084h-30.7a3.071 3.071 0 01-3.07-3.073 3.071 3.071 0 013.07-3.073h30.7a3.071 3.071 0 013.07 3.073 3.071 3.071 0 01-3.07 3.073zm52.495 0h-30.7a3.071 3.071 0 01-3.07-3.073 3.071 3.071 0 013.07-3.073h30.7a3.071 3.071 0 013.07 3.073 3.071 3.071 0 01-3.07 3.073zm52.49 0h-30.695a3.071 3.071 0 01-3.07-3.073 3.071 3.071 0 013.07-3.073h30.695a3.071 3.071 0 013.07 3.073 3.071 3.071 0 01-3.07 3.073zm52.495 0h-30.7a3.071 3.071 0 01-3.07-3.073 3.071 3.071 0 013.07-3.073h30.7a3.071 3.071 0 013.07 3.073 3.071 3.071 0 01-3.07 3.073zm52.49 0H335.4a3.071 3.071 0 01-3.07-3.073 3.071 3.071 0 013.07-3.073h30.695a3.071 3.071 0 013.07 3.073 3.071 3.071 0 01-3.07 3.073z" fill="#fff"/><path d="M325.683 349.577l-8.401 13.943c-3.858 6.402-12.206 8.472-18.609 4.613-6.403-3.858-8.474-12.206-4.616-18.608l8.401-13.942c3.858-6.403 12.207-8.474 18.609-4.615 6.404 3.857 8.474 12.207 4.616 18.609zm-26.431 3.078c-2.131 3.537-.987 8.151 2.552 10.283 3.538 2.133 8.152.989 10.284-2.549l8.401-13.942c2.133-3.539.988-8.153-2.55-10.285-3.538-2.132-8.152-.989-10.285 2.55l-8.402 13.943z" fill="#64798a"/><path d="M322.661 325.462l-1.921.175-8.802 14.607a3.033 3.033 0 005.195 3.131l8.844-14.678-1.8-.198-1.516-3.037z" fill="#3a556a"/><path d="M368.278 332.439l-15.971 3.146c-7.334 1.445-14.475-3.347-15.92-10.682-1.445-7.334 3.346-14.477 10.68-15.922l15.971-3.146c7.334-1.444 14.477 3.347 15.922 10.682 1.445 7.334-3.348 14.477-10.682 15.922zm-20.039-17.508c-4.052.799-6.7 4.746-5.901 8.799.799 4.053 4.745 6.702 8.798 5.903l15.971-3.146c4.055-.799 6.702-4.746 5.903-8.799-.799-4.053-4.745-6.702-8.799-5.903l-15.972 3.146z" fill="#64798a"/><path d="M348.219 319.481l-16.968 3.343 1.42 1.305-1.23 3.163 1.063 1.466 16.887-3.327a3.032 3.032 0 10-1.172-5.95z" fill="#3a556a"/><path d="M317.082 319.498l-1.288 1.867-7.662-5.285 1.288-1.867zm14.866-7.802l-2.254.252-1.033-9.246 2.254-.251zm-7.549 3.534l-1.947 1.164-3.95-6.603 1.945-1.165zm31.441 29.032l-1.288 1.867-7.662-5.285 1.288-1.867zm-20.47 13.312l-2.254.252-1.032-9.246 2.254-.251zm10.165-7.09l-1.947 1.164-3.949-6.604 1.947-1.164zM182.568 232.693h-12.43c.08 1.153.605 2.08 1.58 2.785.975.708 2.085 1.06 3.34 1.06 1.985 0 3.495-.627 4.53-1.878l1.905 2.085c-1.705 1.77-3.935 2.652-6.675 2.652-2.225 0-4.12-.74-5.68-2.22-1.56-1.48-2.34-3.467-2.34-5.962 0-2.492.795-4.475 2.385-5.945 1.59-1.473 3.465-2.208 5.62-2.208 2.155 0 3.99.652 5.5 1.953 1.51 1.303 2.265 3.095 2.265 5.38v2.298zm-12.43-2.625h9.09c0-1.33-.415-2.355-1.25-3.07-.835-.715-1.865-1.073-3.085-1.073-1.225 0-2.32.372-3.295 1.118-.975.745-1.46 1.754-1.46 3.025zm24.41-3.635c-1.65 0-2.89.535-3.725 1.608-.835 1.075-1.25 2.515-1.25 4.322v6.798h-3.34v-15.858h3.34v3.187a6.883 6.883 0 012.19-2.442c.925-.637 1.9-.965 2.935-.985l.03 3.37h-.18zm11.835 0c-1.65 0-2.89.535-3.725 1.608-.835 1.075-1.25 2.515-1.25 4.322v6.798h-3.34v-15.858h3.34v3.187a6.883 6.883 0 012.19-2.442c.925-.637 1.9-.965 2.935-.985l.03 3.37h-.18zm16.485 10.594c-1.59 1.58-3.575 2.37-5.96 2.37s-4.375-.79-5.965-2.37c-1.59-1.58-2.385-3.51-2.385-5.797 0-2.285.795-4.217 2.385-5.797 1.59-1.58 3.58-2.37 5.965-2.37s4.37.79 5.96 2.37c1.59 1.58 2.385 3.512 2.385 5.797 0 2.288-.795 4.218-2.385 5.797zm-9.556-2.054c.945.963 2.14 1.445 3.595 1.445 1.45 0 2.645-.482 3.59-1.445.945-.965 1.415-2.21 1.415-3.743 0-1.53-.47-2.775-1.415-3.74-.945-.965-2.14-1.445-3.59-1.445-1.455 0-2.65.48-3.595 1.445-.945.965-1.415 2.21-1.415 3.74.001 1.532.471 2.778 1.415 3.743zm24.041-8.54c-1.65 0-2.89.535-3.725 1.608-.835 1.075-1.25 2.515-1.25 4.322v6.798h-3.34v-15.858h3.34v3.187a6.883 6.883 0 012.19-2.442c.925-.637 1.9-.965 2.935-.985l.03 3.37h-.18zM132.028 333.562c1.025.858 1.54 2.178 1.54 3.963 0 1.782-.525 3.09-1.57 3.92-1.045.827-2.65 1.243-4.815 1.243h-2.615v4.32h-2.485v-14.73h5.055c2.235 0 3.865.427 4.89 1.284zm-1.76 6.08c.5-.527.75-1.3.75-2.32 0-1.017-.315-1.737-.95-2.16-.63-.42-1.62-.63-2.97-.63h-2.53v5.9h2.89c1.374 0 2.314-.262 2.81-.79zm14.765 7.366h-2.15v-1.498c-.925 1.11-2.17 1.665-3.73 1.665-1.165 0-2.13-.33-2.895-.99-.77-.66-1.15-1.54-1.15-2.645 0-1.103.405-1.928 1.22-2.475.815-.548 1.92-.823 3.31-.823h3.055v-.422c0-1.487-.83-2.232-2.485-2.232-1.04 0-2.12.38-3.245 1.137l-1.055-1.475c1.365-1.083 2.91-1.623 4.635-1.623 1.32 0 2.4.332 3.235 1 .835.667 1.255 1.717 1.255 3.152v7.229zm-2.36-4.173v-.948h-2.655c-1.7 0-2.55.532-2.55 1.6 0 .547.21.968.63 1.255.425.288 1.01.433 1.76.433.755 0 1.41-.212 1.97-.632.565-.423.845-.991.845-1.708zm16.015-7.04v9.78c0 1.98-.535 3.465-1.61 4.457-1.075.99-2.455 1.485-4.145 1.485-1.685 0-3.21-.528-4.57-1.58l1.115-1.793c1.095.83 2.205 1.245 3.32 1.245 1.115 0 2.005-.29 2.655-.865.655-.577.98-1.498.98-2.76v-1.435a4.028 4.028 0 01-1.505 1.582c-.655.393-1.39.59-2.205.59-1.49 0-2.71-.52-3.665-1.56-.955-1.04-1.435-2.333-1.435-3.877 0-1.545.48-2.838 1.435-3.878.955-1.04 2.175-1.56 3.655-1.56 1.485 0 2.69.61 3.615 1.832v-1.665h2.36zm-8.745 5.175c0 .92.285 1.715.855 2.38.565.667 1.335 1.002 2.295 1.002.965 0 1.74-.323 2.34-.97.595-.645.895-1.45.895-2.413 0-.963-.3-1.778-.905-2.445-.605-.668-1.385-1-2.34-1-.955 0-1.72.343-2.285 1.032-.57.689-.855 1.494-.855 2.414zm22.595 1.465h-8.79c.055.815.43 1.47 1.12 1.97.685.498 1.475.747 2.36.747 1.405 0 2.47-.442 3.2-1.328l1.35 1.475c-1.21 1.25-2.78 1.875-4.72 1.875-1.575 0-2.91-.522-4.015-1.57-1.105-1.045-1.655-2.45-1.655-4.215 0-1.762.56-3.162 1.685-4.202s2.45-1.56 3.975-1.56 2.82.46 3.885 1.38c1.07.92 1.605 2.187 1.605 3.805v1.623zm-8.79-1.855h6.43c0-.942-.295-1.665-.885-2.17-.59-.507-1.32-.76-2.185-.76-.86 0-1.64.265-2.325.79-.69.528-1.035 1.24-1.035 2.14zm19.51.358v6.07h-2.36v-11.212h2.36v2.045c.38-.688.905-1.23 1.57-1.622.67-.393 1.39-.59 2.165-.59 1.26 0 2.285.387 3.065 1.16.78.773 1.17 1.888 1.17 3.35v6.87h-2.36v-6.155c0-2.065-.86-3.098-2.575-3.098-.815 0-1.52.272-2.125.813-.605.538-.91 1.328-.91 2.369zm20.635 4.562c-1.125 1.117-2.53 1.675-4.215 1.675s-3.09-.558-4.215-1.675c-1.125-1.118-1.685-2.483-1.685-4.098 0-1.617.56-2.982 1.685-4.1 1.125-1.118 2.53-1.675 4.215-1.675s3.09.557 4.215 1.675c1.125 1.118 1.685 2.483 1.685 4.1 0 1.615-.56 2.98-1.685 4.098zm-6.755-1.452c.67.68 1.515 1.02 2.54 1.02 1.025 0 1.87-.34 2.54-1.02.665-.682 1-1.565 1-2.645 0-1.082-.335-1.965-1-2.645-.67-.682-1.515-1.022-2.54-1.022-1.025 0-1.87.34-2.54 1.022-.665.68-1 1.563-1 2.645 0 1.079.335 1.962 1 2.645zm13.855-6.355v5.69c0 .535.14.96.42 1.275.285.317.675.475 1.18.475.51 0 .995-.247 1.455-.737l.97 1.665c-.83.745-1.745 1.115-2.75 1.115s-1.86-.347-2.57-1.042c-.71-.695-1.065-1.632-1.065-2.812v-5.627h-1.41v-1.897h1.41v-3.517h2.36v3.517h2.95v1.897h-2.95zm14.585-2.826v.928h2.95v1.897h-2.95v9.315h-2.36v-9.315h-1.41v-1.897h1.41v-.863c0-1.18.355-2.12 1.065-2.815.71-.695 1.565-1.042 2.57-1.042s1.92.373 2.75 1.118l-.97 1.665c-.46-.493-.945-.738-1.455-.738-.505 0-.895.158-1.18.473-.28.317-.42.742-.42 1.274zm14.33 10.633c-1.125 1.117-2.53 1.675-4.215 1.675s-3.09-.558-4.215-1.675c-1.125-1.118-1.685-2.483-1.685-4.098 0-1.617.56-2.982 1.685-4.1 1.125-1.118 2.53-1.675 4.215-1.675s3.09.557 4.215 1.675c1.125 1.118 1.685 2.483 1.685 4.1 0 1.615-.56 2.98-1.685 4.098zm-6.756-1.452c.67.68 1.515 1.02 2.54 1.02 1.025 0 1.87-.34 2.54-1.02.665-.682 1-1.565 1-2.645 0-1.082-.335-1.965-1-2.645-.67-.682-1.515-1.022-2.54-1.022-1.025 0-1.87.34-2.54 1.022-.665.68-1 1.563-1 2.645.001 1.079.336 1.962 1 2.645zm18.956-2.183v-6.07h2.36v11.212h-2.36v-2.045c-.38.69-.9 1.23-1.57 1.622a4.153 4.153 0 01-2.16.59c-1.265 0-2.285-.385-3.065-1.157-.78-.773-1.17-1.89-1.17-3.353v-6.87h2.36v6.155c0 2.065.86 3.098 2.57 3.098.815 0 1.525-.27 2.13-.813.605-.539.905-1.329.905-2.369zm8.135-.927v6.07h-2.36v-11.212h2.36v2.045c.38-.688.905-1.23 1.57-1.622.67-.393 1.39-.59 2.165-.59 1.26 0 2.285.387 3.065 1.16.78.773 1.17 1.888 1.17 3.35v6.87h-2.36v-6.155c0-2.065-.86-3.098-2.575-3.098-.815 0-1.52.272-2.125.813-.605.538-.91 1.328-.91 2.369zm12.119 4.637c-1.055-1.068-1.579-2.472-1.579-4.215s.54-3.132 1.625-4.173c1.08-1.04 2.37-1.56 3.865-1.56s2.7.632 3.615 1.897v-6.155h2.36v15.638h-2.36v-1.685c-.87 1.235-2.145 1.852-3.815 1.852-1.42.001-2.655-.532-3.711-1.599zm.781-4.12c0 1.075.345 1.948 1.035 2.623.685.675 1.495 1.012 2.42 1.012.93 0 1.715-.34 2.36-1.022.65-.68.97-1.555.97-2.622 0-1.07-.32-1.96-.97-2.678-.645-.717-1.44-1.075-2.38-1.075s-1.75.357-2.425 1.075c-.67.717-1.01 1.612-1.01 2.687z" fill="#64798a"/><path d="M156.35 292.647v-10.842h9.49v10.842h7.115v9.065h-7.115v14.908h-9.49v-14.908h-25.41v-8.81l21.77-35.492h10.925l-21.43 35.237h14.145zm30.915 16.308c-4.01-5.562-6.01-13.003-6.01-22.32s2-16.757 6.01-22.32c4.01-5.562 10.055-8.345 18.13-8.345s14.115 2.782 18.125 8.345c4.01 5.563 6.015 13.003 6.015 22.32s-2.005 16.758-6.015 22.32c-4.01 5.562-10.05 8.342-18.125 8.342-8.075.001-14.12-2.78-18.13-8.342zm7.16-38.33c-2.345 4.065-3.515 9.402-3.515 16.01 0 6.605 1.17 11.942 3.515 16.008 2.34 4.067 6 6.1 10.97 6.1 4.965 0 8.595-2.018 10.885-6.057 2.285-4.035 3.43-9.388 3.43-16.05 0-6.663-1.145-12.015-3.43-16.052-2.29-4.038-5.92-6.057-10.885-6.057-4.97-.002-8.63 2.03-10.97 6.098zm68.655 22.022v-10.842h9.49v10.842h7.115v9.065h-7.115v14.908h-9.49v-14.908h-25.41v-8.81l21.77-35.492h10.925l-21.43 35.237h14.145z" fill="#e56353"/></svg>