<svg xmlns="http://www.w3.org/2000/svg" viewBox="0 0 512.003 512.003"><path d="M511.631 241.979c-.294-5.509-.817-10.972-1.455-16.408a251.385 251.385 0 00-11.466-51.237 253.966 253.966 0 00-10.283-25.695l-.015-.021A255.005 255.005 0 00330.918 11.285c-.292-.121-.698-.28-1.075-.411a3.25 3.25 0 00-.642-.184 256.389 256.389 0 00-215.25 32.225c-7 4.689-13.729 9.681-20.188 14.978a256.593 256.593 0 00-50.321 55.36 250.415 250.415 0 00-23.308 43.163c-.599 1.415-1.04 2.876-1.613 4.298A250.114 250.114 0 00.718 238.155c-.492 5.35-.717 11.021-.717 17.846a253.08 253.08 0 0026.05 112.483 257.907 257.907 0 0018.625 32.042l.034.033a255.209 255.209 0 00102.508 87.154 252.298 252.298 0 00108.783 24.288c7.05 0 14.051-.281 21.004-.842a254.952 254.952 0 0036.779-5.815c4.144-.955 8.233-2.074 12.317-3.235a252.15 252.15 0 0049.537-19.732 258.91 258.91 0 0035.205-22.552l.005-.006C474.558 411.414 511.979 336.012 512.002 256c0-4.696-.124-9.37-.371-14.021zm-50.225-108.068a298.865 298.865 0 00-79.375-20.673 296.403 296.403 0 00-32.802-77.21 238.334 238.334 0 01112.177 97.883zm-94.234 115.381c-7.4-11.582-15.081-22.973-23.279-33.945a263.629 263.629 0 00-81.985-74.829 284.792 284.792 0 0183.694-12.517c7.596 0 15.2.402 22.751 1.02a283.298 283.298 0 016.866 50.497 318.417 318.417 0 01-8.047 69.774zM256.002 17.068c5.734 0 11.45.207 17.146.621 1.979.142 3.942.438 5.916.629 3.689.357 7.38.682 11.056 1.212 2.903.42 5.784 1.025 8.674 1.554 2.662.485 5.33.896 7.987 1.472 4.652 1.018 9.281 2.223 13.898 3.528.672.187 1.346.331 2.017.524a280.756 280.756 0 0141.215 84.954c-6.087-.376-12.2-.627-18.308-.627a301.05 301.05 0 00-104.899 18.729 299.508 299.508 0 00-125.501-27.262 307.937 307.937 0 00-44.946 3.407 237.487 237.487 0 01185.745-88.741zM46.048 369.701c-.231-.426-.458-.854-.687-1.282-1.329-2.494-2.722-4.881-3.993-7.464-1.241-2.526-2.346-5.093-3.492-7.648a236.106 236.106 0 01-20.808-97.306c0-6.296.208-11.471.667-16.521a234.006 234.006 0 0118.133-76.442c2.537-6.069 5.402-12.032 8.473-17.901.298-.572.573-1.155.877-1.726 2.958-5.544 6.19-10.959 9.596-16.264.327-.511.648-1.026.979-1.534a291.222 291.222 0 0159.408-6.148 282.963 282.963 0 01103.371 19.356 300.195 300.195 0 00-56.171 33.882c-2.5 2.125-61.442 52.625-84.717 99.65a335.796 335.796 0 00-31.636 97.348zm14.446 23.537a306.727 306.727 0 0132.491-113.316c21.7-43.854 79.9-93.725 80.125-93.933a282.082 282.082 0 0166.944-37.746 242.362 242.362 0 0190.173 77.317 546.671 546.671 0 0131.238 46.809 380.515 380.515 0 01-20.964 56.845c-32.415 70.006-102.785 122.803-188.564 141.76a238.095 238.095 0 01-91.443-77.736zm182.233 101.34a235.002 235.002 0 01-64.815-12.734c80.773-23.851 146.308-76.857 178.073-145.455a399.652 399.652 0 0017.142-43.622c3.915 7.234 7.694 14.54 11.275 21.935 11.525 23.787 16.667 51.742 16.667 90.633a279.302 279.302 0 01-3.242 42.783c-2.375 1.756-4.808 3.395-7.233 5.056-2.464 1.687-4.892 3.445-7.404 5.033-2.935 1.855-5.958 3.519-8.957 5.238-2.559 1.466-5.082 3.012-7.685 4.378-3.074 1.613-6.23 3.024-9.361 4.496-2.629 1.236-5.223 2.561-7.891 3.697-3.216 1.369-6.511 2.525-9.78 3.748-2.676 1.001-5.316 2.1-8.027 3.003-3.393 1.13-6.858 2.033-10.302 3.008-2.662.754-5.293 1.618-7.984 2.278-3.653.896-7.374 1.55-11.076 2.271-2.551.498-5.071 1.118-7.644 1.533-4.173.672-8.406 1.082-12.629 1.534-2.156.23-4.284.594-6.453.767-6.417.511-12.883.77-19.396.777-4.451 0-8.876-.119-13.278-.357zM489.41 307.01a238.55 238.55 0 01-72.531 125.617 303.318 303.318 0 001.256-27.292c0-25.821-1.908-64.083-18.367-98.075-6.133-12.664-12.888-25.037-19.956-37.222a341.545 341.545 0 0012.456-91.198 299.775 299.775 0 00-6.008-47.896 281.35 281.35 0 0187.81 27.494 234.053 234.053 0 012.263 5.236c.724 1.715 1.475 3.423 2.156 5.152.867 2.196 1.65 4.418 2.448 6.634.64 1.776 1.309 3.542 1.905 5.331.741 2.225 1.395 4.475 2.068 6.72.542 1.803 1.119 3.596 1.615 5.411.625 2.282 1.157 4.59 1.713 6.89.438 1.807.915 3.603 1.307 5.42.511 2.364.923 4.753 1.361 7.134.328 1.779.702 3.546.99 5.334.403 2.514.7 5.052 1.023 7.584.215 1.681.481 3.351.66 5.04.3 2.836.486 5.696.686 8.554.099 1.407.253 2.803.328 4.215a248.1 248.1 0 01.341 12.909 237.938 237.938 0 01-5.524 51.008z" fill="#4482c3"/><path d="M350.471 179.201h45.167c17.976.897 31.846 16.154 31.031 34.133v85.333c.815 17.979-13.055 33.236-31.03 34.133H116.365c-17.976-.897-31.846-16.154-31.03-34.133v-85.333c-.815-17.979 13.055-33.236 31.03-34.133h234.106z" fill="#65ddb9"/><g fill="#fff"><path d="M204.802 281.601h-59.733a8.53 8.53 0 01-7.409-12.767l34.133-59.733a8.533 8.533 0 0114.817 8.467l-26.833 46.967h45.025a8.533 8.533 0 010 17.066z"/><path d="M187.735 307.201a8.53 8.53 0 01-8.534-8.534V256a8.533 8.533 0 0117.066 0v42.667a8.53 8.53 0 01-8.532 8.534zm179.2-25.6h-59.733a8.53 8.53 0 01-7.409-12.767l34.133-59.733a8.533 8.533 0 0114.817 8.467l-26.833 46.967h45.025c4.713 0 8.533 3.82 8.533 8.533s-3.82 8.533-8.533 8.533z"/><path d="M349.868 307.201a8.53 8.53 0 01-8.534-8.534V256a8.533 8.533 0 0117.066 0v42.667a8.53 8.53 0 01-8.532 8.534zm-85.333 0h-17.067c-14.132-.015-25.585-11.468-25.6-25.6v-51.2c.015-14.132 11.468-25.585 25.6-25.6h17.067c14.132.015 25.585 11.468 25.6 25.6v51.2c-.015 14.132-11.468 25.585-25.6 25.6zm-17.067-85.333a8.54 8.54 0 00-8.533 8.533v51.2a8.54 8.54 0 008.533 8.533h17.067a8.54 8.54 0 008.533-8.533v-51.2a8.54 8.54 0 00-8.533-8.533h-17.067z"/></g></svg>