<svg xmlns="http://www.w3.org/2000/svg" width="500" height="500"><g transform="rotate(-45 -666.76 -276.181)" color="#000" fill-rule="evenodd"><rect style="isolation:auto;mix-blend-mode:normal;solid-color:#000;solid-opacity:1" width="360.482" height="360.482" x="-570.82" y="563.892" rx="15.351" overflow="visible" fill="#fdb719" stroke="#060606" stroke-width="2.915"/><rect style="isolation:auto;mix-blend-mode:normal;solid-color:#000;solid-opacity:1" width="333.572" height="333.572" x="-557.365" y="577.346" rx="14.205" overflow="visible" fill="#060606"/><rect style="isolation:auto;mix-blend-mode:normal;solid-color:#000;solid-opacity:1" width="319.069" height="319.069" x="-550.113" y="584.598" rx="13.587" overflow="visible" fill="#fdb719"/></g><path d="M164.205 241.615q0 9.884-2.332 17.048-2.277 7.163-6.33 11.772-3.999 4.61-9.441 6.83-5.386 2.222-11.55 2.222-14.327 0-21.546-9.496-7.22-9.551-7.22-27.71 0-9.884 2.278-17.048 2.332-7.163 6.33-11.772 4.054-4.61 9.44-6.83 5.442-2.222 11.606-2.222 14.327 0 21.546 9.496 7.22 9.496 7.22 27.71zm-14.438.666q0-12.883-3.443-19.213-3.443-6.33-11.328-6.33-3.943 0-6.72 1.665-2.776 1.61-4.608 4.776-1.777 3.165-2.61 7.83-.833 4.609-.833 10.606 0 12.883 3.443 19.214 3.498 6.33 11.328 6.33 3.943 0 6.72-1.61 2.831-1.666 4.608-4.832 1.777-3.165 2.61-7.774.833-4.664.833-10.662zm75.133 7.275q0 6.663-1.888 12.217-1.888 5.497-5.442 9.44-3.554 3.942-8.718 6.108-5.165 2.166-11.773 2.166-6.275 0-11.217-1.833-4.942-1.832-8.385-5.442-3.443-3.665-5.276-9.107-1.832-5.497-1.832-12.772 0-6.719 1.888-12.217 1.944-5.497 5.498-9.384 3.61-3.887 8.773-5.998 5.165-2.165 11.662-2.165 6.33 0 11.273 1.888 4.942 1.832 8.385 5.497 3.443 3.665 5.22 9.107 1.832 5.387 1.832 12.495zm-14.105.333q0-8.774-3.331-13.16-3.277-4.443-9.718-4.443-3.554 0-6.053 1.388-2.5 1.388-4.11 3.832-1.61 2.387-2.387 5.608-.722 3.221-.722 6.886 0 8.83 3.554 13.327 3.554 4.443 9.718 4.443 3.387 0 5.886-1.333 2.499-1.388 4.054-3.776 1.554-2.443 2.332-5.72.777-3.276.777-7.052zm76.688-.889q0 7.775-2.221 13.439-2.166 5.664-6.108 9.44-3.887 3.72-9.218 5.553-5.331 1.777-11.606 1.777-2.11 0-4.22-.277-2.11-.278-3.832-.722v22.045h-13.55V221.79h11.717l.333 8.33q1.722-2.166 3.554-3.943 1.888-1.777 4.054-2.998 2.166-1.278 4.665-1.944 2.499-.666 5.608-.666 4.998 0 8.885 1.999 3.887 1.999 6.497 5.72 2.666 3.665 4.054 8.94 1.388 5.22 1.388 11.772zm-14.216.556q0-4.665-.666-7.941t-1.944-5.387q-1.221-2.11-3.054-3.054-1.777-1-4.109-1-3.443 0-6.608 2.777-3.11 2.777-6.608 7.552v24.656q1.61.61 3.942 1 2.388.388 4.832.388 3.22 0 5.83-1.332 2.666-1.333 4.498-3.777 1.888-2.443 2.888-5.941 1-3.554 1-7.941zm72.635 12.05q0 4.831-2.166 8.274-2.11 3.387-5.664 5.553-3.499 2.11-7.997 3.054-4.442 1-9.107 1-6.22 0-11.217-.611-4.998-.555-9.44-1.666v-12.217q5.22 2.166 10.384 3.166 5.22.944 9.829.944 5.331 0 7.94-1.666 2.666-1.722 2.666-4.443 0-1.277-.555-2.332t-2.11-2q-1.5-.999-4.276-1.998-2.776-1.055-7.274-2.333-4.165-1.166-7.33-2.61-3.11-1.499-5.165-3.498-2.054-2-3.11-4.609-1-2.665-1-6.22 0-3.442 1.556-6.497 1.555-3.054 4.609-5.33 3.11-2.333 7.719-3.666 4.609-1.332 10.773-1.332 5.33 0 9.44.555 4.109.555 7.274 1.222v11.05q-4.83-1.555-9.107-2.165-4.22-.667-8.385-.667t-6.72 1.5q-2.498 1.499-2.498 4.164 0 1.278.5 2.277.5 1 1.943 1.944 1.5.944 4.11 1.999 2.665 1 6.996 2.221 4.887 1.388 8.219 2.999 3.332 1.555 5.331 3.554 2.055 1.999 2.943 4.553.889 2.555.889 5.83zm45.479-5.942h-11.606l-2.054-55.92h15.715l-2.055 55.92zm-5.83 6.497q1.777 0 3.331.667 1.61.666 2.777 1.832 1.166 1.166 1.832 2.777.722 1.555.722 3.387 0 1.833-.722 3.443-.666 1.555-1.832 2.72-1.166 1.167-2.777 1.833-1.554.667-3.331.667t-3.388-.667q-1.555-.666-2.72-1.832-1.167-1.166-1.833-2.721-.667-1.61-.667-3.443 0-1.832.667-3.387.666-1.61 1.832-2.777 1.166-1.166 2.721-1.832 1.61-.667 3.388-.667z" font-weight="700" font-size="113.727" font-family="Consolas" letter-spacing="0" word-spacing="0" fill="#060606"/></svg>