<svg viewBox="0 0 228.89 228.89" xmlns="http://www.w3.org/2000/svg"><g stroke="#000" stroke-linecap="round" stroke-linejoin="round"><path d="M160.32 208.75c10.282 4.272 27.785 4.79 23.933 16.41-12.6 4.601-23.553 1.747-35.068-.157-6.392-1.057-11.822 4.301-20.075-.853l.32-15.122 30.89-.278zm-87.91-2.71c-10.833 2.574-28.193.29-26.248 12.374 11.703 6.556 22.971 5.488 34.643 5.45 6.48-.022 10.983 6.134 19.954 2.365l2.1-14.979-30.448-5.21z" fill="#fff" stroke-width="2.5"/><path d="M69.95 164.89l-9.82 44.334c12.006 7.09 30.767 7.179 47.256 4.354l8.592-30.084 5.523 31.272c8.43 1.961 37.839 2.468 50.323-3.562l-14.73-40.772-87.144-5.542z" fill="#fff" stroke-width="2.5"/><path d="M65.38 159.71s1.034-73.291 55-71c53 2.25 45 76 45 76 4.667 36.14-101.67 18.613-100-5z" fill="#fff" stroke-width="2.5"/><path d="M97.38 104.71s-17.966-16.291 23-16c40.985.291 22 14 22 14-21.333 29.14-24.667 25.613-45 2z" fill="#fff" stroke-width="2.5"/><path d="M88.38 93.71l19 34 14-17-24-19-9 2z" fill="#fff" stroke-width="2.5"/><path d="M153.38 93.71l-19 34-14-17 24-19 9 2zM55.68 49.1l23.725 5.262M68.28 32.33l17.467 11.431M83.01 20.04l15.162 15.809M101.32 7.66l3.633 21.697M120.52 1.25l-1.214 25.512M139.2 3.17l-5.687 19.63M157.33 7.64l-11.948 17.797" fill="#fff" stroke-width="2.5"/><path transform="matrix(.3573 -.22757 .25266 .39669 -117.68 71.08)" d="M598.04 244.74c0 47.963-48.16 86.844-107.57 86.844S382.9 292.703 382.9 244.74s48.16-86.844 107.57-86.844 107.57 38.881 107.57 86.844z" fill="#fff" stroke-width="5.601"/><path d="M113.625 44.63c4.896 7.685 2.822 17.764-4.631 22.512s-17.464 2.364-22.36-5.322-2.821-17.765 4.632-22.512 17.464-2.365 22.36 5.321zm26.878-11.784c3.263 5.124 2.51 11.442-1.682 14.113s-10.237.68-13.5-4.444-2.511-11.442 1.681-14.112 10.237-.681 13.5 4.443z" fill="#fff" stroke-width="2.5"/><path d="M114.495 46.826a6 6 0 11-10.121 6.446 6 6 0 0110.121-6.446zm18.407-7.978a4 4 0 11-6.748 4.298 4 4 0 016.748-4.298zm-1.407 34.698a6 6 0 11-10.121 6.446 6 6 0 0110.121-6.446z" fill="#fff" stroke-width="2.5"/><g fill="#fff"><path transform="matrix(.86023 -.16351 .19143 .95001 -517.509 -139.731)" d="M660.34 355.32c0 8.304-6.869 15.036-15.342 15.036s-15.342-6.732-15.342-15.036 6.869-15.036 15.342-15.036 15.342 6.732 15.342 15.036z" stroke-width="2.714"/><path d="M654.48 338s-38.246 18.947-33.177 36.16c4.978 16.905 42.964-4.456 42.964-4.456 19.231-7.636 2.44-38.249-9.787-31.705z" stroke-width="2.026" transform="matrix(1.2289 -.23359 .24052 1.1936 -796.2 -167.498)"/></g><g fill="#fff"><path transform="matrix(.4075 .71974 -.73152 .51833 137.415 -560.12)" d="M660.34 355.32c0 8.304-6.869 15.036-15.342 15.036s-15.342-6.732-15.342-15.036 6.869-15.036 15.342-15.036 15.342 6.732 15.342 15.036z" stroke-width="2.911"/><path d="M687.47 301.84s40.413-13.731 49.033 2.007c8.466 15.456-33.474 27.3-33.474 27.3-18.98 8.238-28.824-25.261-15.559-29.307z" stroke-width="2.173" transform="matrix(.58213 1.0282 -.91909 .65124 32.29 -821.54)"/></g><g stroke-width="2.5"><path d="M79.34 52.04c.164.772.388 1.523.677 2.283l.842 2.22c3.112 8.202 12.387 12.235 20.796 9.044l3.795-1.44c8.408-3.191 12.673-12.362 9.56-20.563l-.842-2.22c-.29-.762-.62-1.471-1.01-2.158-.913-3.328-10.605-1.753-16.107.242-5.8 2.102-19.57 9.38-17.71 12.592z" fill="#f9f9f9" fill-opacity=".216"/><path d="M73.229 53.182l5.274-2.002 2.196 5.787-5.274 2z" fill="#fff"/><path d="M151.77 24.55c.39.687.72 1.397 1.009 2.157l.842 2.22c3.112 8.202-1.152 17.373-9.56 20.564l-3.795 1.44c-8.408 3.19-17.683-.842-20.796-9.043l-.842-2.22a15.466 15.466 0 01-.677-2.284c-1.524-3.096 6.773-8.348 12.213-10.506 5.734-2.274 20.865-5.964 21.605-2.328z" fill="#f9f9f9" fill-opacity=".216"/><path d="M157.112 21.348l-5.274 2.001 2.196 5.787 5.274-2.002z" fill="#fff"/><path d="M113.03 38.08c1.868.617 3.432.43 4.285-1.626l1.342 3.536c-1.888-.67-3.209.157-4.285 1.626z" fill="none"/></g></g></svg>