<?xml version="1.0" encoding="UTF-8" standalone="no"?>
<!-- Creator: CorelDRAW X6 -->

<svg
   xmlns:dc="http://purl.org/dc/elements/1.1/"
   xmlns:cc="http://creativecommons.org/ns#"
   xmlns:rdf="http://www.w3.org/1999/02/22-rdf-syntax-ns#"
   xmlns:svg="http://www.w3.org/2000/svg"
   xmlns="http://www.w3.org/2000/svg"
   xmlns:sodipodi="http://sodipodi.sourceforge.net/DTD/sodipodi-0.dtd"
   xmlns:inkscape="http://www.inkscape.org/namespaces/inkscape"
   xml:space="preserve"
   width="7.79166in"
   height="4.80555in"
   version="1.1"
   style="shape-rendering:geometricPrecision; text-rendering:geometricPrecision; image-rendering:optimizeQuality; fill-rule:evenodd; clip-rule:evenodd"
   viewBox="0 0 7792 4806"
   id="svg328"
   sodipodi:docname="jumbotron.svg"
   inkscape:version="0.92.3 (2405546, 2018-03-11)"><metadata
   id="metadata332"><rdf:RDF><cc:Work
       rdf:about=""><dc:format>image/svg+xml</dc:format><dc:type
         rdf:resource="http://purl.org/dc/dcmitype/StillImage" /></cc:Work></rdf:RDF></metadata><sodipodi:namedview
   pagecolor="#ffffff"
   bordercolor="#666666"
   borderopacity="1"
   objecttolerance="10"
   gridtolerance="10"
   guidetolerance="10"
   inkscape:pageopacity="0"
   inkscape:pageshadow="2"
   inkscape:window-width="1920"
   inkscape:window-height="1033"
   id="namedview330"
   showgrid="false"
   inkscape:zoom="1.3272444"
   inkscape:cx="398.71357"
   inkscape:cy="219.84196"
   inkscape:window-x="-4"
   inkscape:window-y="-4"
   inkscape:window-maximized="1"
   inkscape:current-layer="svg328" />
 <defs
   id="defs4">
  <style
   type="text/css"
   id="style2">
   <![CDATA[
    .fil38 {fill:#219BA0}
    .fil32 {fill:#282828}
    .fil26 {fill:#2897A6}
    .fil22 {fill:#3CAEE3}
    .fil39 {fill:#3EADD5}
    .fil34 {fill:#3F5BA7}
    .fil44 {fill:#42B769}
    .fil36 {fill:#43B767}
    .fil37 {fill:#83C456}
    .fil24 {fill:#94D9F8}
    .fil0 {fill:#96989B}
    .fil1 {fill:#9A9C9F}
    .fil48 {fill:#9C416C}
    .fil25 {fill:#9DCC56}
    .fil2 {fill:#9FA2A6}
    .fil3 {fill:#A4A6A8}
    .fil41 {fill:#A65F4D}
    .fil4 {fill:#A8AAAD}
    .fil40 {fill:#A8CF46}
    .fil5 {fill:#ADAFB2}
    .fil6 {fill:#B1B3B6}
    .fil7 {fill:#B5B8BB}
    .fil8 {fill:#BCBDC0}
    .fil30 {fill:#BFC0C1}
    .fil9 {fill:#C0C2C4}
    .fil10 {fill:#C5C5C7}
    .fil27 {fill:#C8C5E2}
    .fil11 {fill:#C9CACC}
    .fil12 {fill:#CED1D1}
    .fil47 {fill:#D2D4D4}
    .fil13 {fill:#D4D7D6}
    .fil14 {fill:#D9DADB}
    .fil15 {fill:#DBDDDE}
    .fil16 {fill:#E2E3E4}
    .fil45 {fill:#E55638}
    .fil17 {fill:#E8E7E8}
    .fil31 {fill:#E92E91}
    .fil33 {fill:#EE3539}
    .fil18 {fill:#EEEEEE}
    .fil19 {fill:#F2F3F2}
    .fil49 {fill:#F3CB30}
    .fil28 {fill:#F58634}
    .fil23 {fill:#F6AFCE}
    .fil20 {fill:#F7F5F5}
    .fil29 {fill:#FAAB54}
    .fil43 {fill:#FAEE35}
    .fil35 {fill:#FBDD23}
    .fil21 {fill:#FEFEFE}
    .fil42 {fill:#FFCC2B}
    .fil46 {fill:#FEFEFE;fill-rule:nonzero}
   ]]>
  </style>
 
  
  
  
  
  
  
  
  
  
  
  
  
  
  
  
  
  
  
  
  
  
  
  
  
  
  
  
  
  
  
  
  
  
  
  
  
  
  
  
  
  
  
  
  
  
  
  
  
  
  
  
  
  
  
  
  
  
  
  
  
  
  
  
  
  
  
  
  
  
  
  
  
  
  
  
  
  
  
  
  
  
  
  
  
  
  
  
  
  
  
  
  
  
  
  
  
  
  
  
  
  
  
  
  
  
  
  
  
  
  
  
  
  
  
  
  
  
  
  
  
  
  
  
  
  
  
  
  
  
  
  
  
  
  
  
  
  
  
  
  
  
  
  
  
  
  
  
  
  
  
  
  
  
  
  
  
  
  
  
  
  
 </defs>
 <path
   style="fill:#3caee3"
   inkscape:connector-curvature="0"
   id="path53"
   d="m 7689,3295 c 39,27 78,55 115,82 v 131 c -43,17 -86,32 -134,43 -72,-56 -163,-114 -253,-176 95,-17 187,-44 272,-79 z"
   class="fil22" /><path
   style="fill:#f6afce"
   inkscape:connector-curvature="0"
   id="path55"
   d="m 5039,2727 c 142,-24 277,-61 408,-108 -120,59 -247,108 -382,152 -153,29 -301,35 -461,31 148,-19 291,-40 435,-75 z"
   class="fil23" /><path
   style="fill:#94d9f8"
   inkscape:connector-curvature="0"
   id="path57"
   d="m 7025,3254 c 90,61 184,122 268,181 -92,-1 -190,-10 -285,-23 -96,-65 -196,-130 -291,-191 106,18 205,27 308,33 z"
   class="fil24" /><path
   style="fill:#9dcc56"
   inkscape:connector-curvature="0"
   id="path59"
   d="m 7348,3473 c 89,65 170,125 253,186 -91,2 -180,-1 -274,-11 -94,-69 -178,-134 -275,-202 103,18 202,27 295,27 z"
   class="fil25" /><path
   style="fill:#94d9f8"
   inkscape:connector-curvature="0"
   id="path61"
   d="m 7628,3684 c 61,44 120,86 176,127 v 51 c -60,5 -121,8 -187,3 -79,-61 -164,-127 -249,-191 90,10 177,11 260,9 z"
   class="fil24" /><path
   style="fill:#2897a6"
   inkscape:connector-curvature="0"
   id="path63"
   d="m 7696,3182 c -124,-95 -285,-184 -436,-271 -27,-15 -54,-32 -66,-46 136,82 305,172 441,263 11,21 51,40 61,54 z"
   class="fil26" /><path
   style="fill:#3caee3"
   inkscape:connector-curvature="0"
   id="path65"
   d="m 5541,2729 c 123,-17 240,-27 354,-31 -116,28 -251,60 -388,85 -115,24 -234,41 -367,84 133,-56 271,-95 402,-138 z"
   class="fil22" /><path
   style="fill:#c8c5e2"
   inkscape:connector-curvature="0"
   id="path67"
   d="m 5956,2696 c 116,10 221,18 331,40 -118,19 -235,38 -354,49 -108,-8 -237,-13 -363,-4 129,-30 270,-54 385,-85 z"
   class="fil27" /><path
   style="fill:#f58634"
   inkscape:connector-curvature="0"
   id="path69"
   d="m 6343,2748 c 101,25 208,58 309,96 -105,17 -221,26 -337,32 -110,-36 -218,-59 -329,-83 124,-9 232,-27 358,-45 z"
   class="fil28" /><path
   style="fill:#faab54"
   inkscape:connector-curvature="0"
   id="path71"
   d="m 6707,2862 c 103,44 199,90 302,140 -103,18 -212,27 -317,30 -120,-52 -222,-99 -330,-138 117,-7 233,-14 344,-33 z"
   class="fil29" /><path
   style="fill:#bfc0c1"
   inkscape:connector-curvature="0"
   id="path73"
   d="m 7052,3026 c 90,53 178,107 261,159 -85,22 -187,33 -285,39 -87,-55 -184,-111 -292,-169 109,-1 213,-11 315,-29 z"
   class="fil30" /><path
   style="fill:#3caee3"
   inkscape:connector-curvature="0"
   id="path75"
   d="m 5120,2774 c 142,-40 277,-71 398,-107 -129,55 -258,96 -392,151 -133,30 -277,61 -424,90 143,-50 286,-93 419,-134 z"
   class="fil22" /><path
   style="fill:#e92e91"
   inkscape:connector-curvature="0"
   id="path77"
   d="m 5573,2656 c 124,-35 235,-53 353,-78 -116,53 -240,94 -362,138 -120,22 -244,51 -375,85 131,-49 260,-100 384,-146 z"
   class="fil31" /><path
   style="fill:#282828"
   inkscape:connector-curvature="0"
   id="path79"
   d="m 5979,2573 c 118,-11 233,-17 337,-12 -107,44 -219,85 -343,118 -112,5 -235,11 -349,30 122,-44 242,-86 354,-135 z"
   class="fil32" /><path
   style="fill:#94d9f8"
   inkscape:connector-curvature="0"
   id="path81"
   d="m 6368,2562 c 106,13 210,28 309,51 -100,46 -207,80 -315,111 -111,-21 -216,-37 -334,-43 121,-35 235,-73 339,-119 z"
   class="fil24" /><path
   style="fill:#3caee3"
   inkscape:connector-curvature="0"
   id="path83"
   d="m 6724,2628 c 106,28 205,60 298,99 -99,43 -193,80 -293,107 -108,-36 -213,-69 -319,-100 115,-27 215,-64 314,-106 z"
   class="fil22" /><path
   style="fill:#e92e91"
   inkscape:connector-curvature="0"
   id="path85"
   d="m 7074,2746 c 93,43 186,88 272,134 -87,45 -180,85 -275,113 -96,-49 -198,-96 -296,-139 100,-27 195,-64 299,-108 z"
   class="fil31" /><path
   style="fill:#ee3539"
   inkscape:connector-curvature="0"
   id="path87"
   d="m 7385,2909 c 82,52 162,101 242,155 -77,47 -170,88 -264,117 -80,-55 -166,-108 -255,-162 92,-28 177,-64 277,-110 z"
   class="fil33" /><path
   style="fill:#3f5ba7"
   inkscape:connector-curvature="0"
   id="path89"
   d="m 5967,2443 c 117,-34 232,-62 337,-80 -104,73 -204,133 -324,194 -112,18 -232,44 -350,74 118,-59 228,-118 338,-189 z"
   class="fil34" /><path
   style="fill:#3caee3"
   inkscape:connector-curvature="0"
   id="path91"
   d="m 6351,2358 c 112,-9 211,-11 311,-6 -91,67 -191,131 -291,184 -101,-3 -218,0 -336,15 113,-61 224,-124 316,-193 z"
   class="fil22" /><path
   style="fill:#fbdd23"
   inkscape:connector-curvature="0"
   id="path93"
   d="m 6710,2356 c 101,12 195,30 288,56 -85,68 -185,130 -280,184 -92,-26 -197,-40 -299,-55 102,-52 195,-115 290,-185 z"
   class="fil35" /><path
   style="fill:#43b767"
   inkscape:connector-curvature="0"
   id="path95"
   d="m 7048,2424 c 96,30 192,61 283,101 -86,68 -167,128 -265,184 -95,-39 -194,-72 -293,-102 93,-55 185,-114 275,-183 z"
   class="fil36" /><path
   style="fill:#3f5ba7"
   inkscape:connector-curvature="0"
   id="path97"
   d="m 7373,2543 c 86,41 173,84 249,134 -76,68 -154,131 -231,185 -93,-47 -179,-93 -275,-135 95,-55 176,-117 256,-185 z"
   class="fil34" /><path
   style="fill:#83c456"
   inkscape:connector-curvature="0"
   id="path99"
   d="m 7804,3179 c -65,-48 -141,-97 -213,-144 73,-47 143,-103 213,-165 z"
   class="fil37" /><path
   style="fill:#f6afce"
   inkscape:connector-curvature="0"
   id="path101"
   d="m 6656,2067 c 100,-10 196,-11 292,-6 -80,94 -162,179 -251,260 -97,-7 -203,-1 -305,5 96,-80 180,-165 263,-258 z"
   class="fil23" /><path
   style="fill:#219ba0"
   inkscape:connector-curvature="0"
   id="path103"
   d="m 6998,2063 c 94,15 181,37 275,61 -76,91 -150,172 -239,253 -92,-24 -193,-39 -292,-53 93,-82 177,-168 256,-262 z"
   class="fil38" /><path
   style="fill:#219ba0"
   inkscape:connector-curvature="0"
   id="path105"
   d="m 7317,2138 c 92,30 181,63 265,103 -74,93 -143,172 -218,249 -87,-38 -185,-71 -285,-99 90,-80 166,-164 238,-254 z"
   class="fil38" /><path
   style="fill:#43b767"
   inkscape:connector-curvature="0"
   id="path107"
   d="m 7624,2262 c 59,32 119,66 180,98 v 110 c -49,61 -96,119 -146,173 -88,-44 -167,-90 -253,-133 75,-77 146,-159 219,-248 z"
   class="fil36" /><path
   style="fill:#83c456"
   inkscape:connector-curvature="0"
   id="path109"
   d="m 6987,1653 c 96,-2 187,3 276,15 -58,109 -127,216 -205,322 -88,-14 -186,-14 -283,-12 81,-108 147,-212 211,-325 z"
   class="fil37" /><path
   style="fill:#43b767"
   inkscape:connector-curvature="0"
   id="path111"
   d="m 7310,1673 c 90,23 181,44 269,76 -63,107 -128,212 -198,313 -89,-30 -185,-49 -276,-69 70,-100 141,-206 205,-319 z"
   class="fil36" /><path
   style="fill:#43b767"
   inkscape:connector-curvature="0"
   id="path113"
   d="m 7520,1241 c 84,26 164,60 251,94 -55,119 -107,231 -161,343 -88,-30 -177,-52 -269,-75 61,-115 121,-239 180,-362 z"
   class="fil36" /><path
   style="fill:#3eadd5"
   inkscape:connector-curvature="0"
   id="path115"
   d="m 6147,2026 c 100,-64 199,-118 307,-180 -78,117 -166,229 -250,329 -110,49 -216,104 -327,159 95,-90 183,-197 270,-307 z"
   class="fil39" /><path
   style="fill:#a8cf46"
   inkscape:connector-curvature="0"
   id="path117"
   d="m 7738,25 c -9,5 -19,10 -28,15 l 6,-43 c 8,9 15,18 22,27 z"
   class="fil40" /><path
   style="fill:#a65f4d"
   inkscape:connector-curvature="0"
   id="path119"
   d="m 5436,2541 c 57,-31 113,-60 161,-93 -9,12 -19,23 -31,38 -49,25 -108,56 -162,85 11,-10 21,-20 33,-30 z"
   class="fil41" /><path
   style="fill:#43b767"
   inkscape:connector-curvature="0"
   id="path121"
   d="m 1469,929 c 85,35 165,79 245,122 9,37 11,73 18,109 -74,-39 -163,-82 -242,-114 -5,-38 -17,-78 -22,-117 z"
   class="fil36" /><path
   style="fill:#ffcc2b"
   inkscape:connector-curvature="0"
   id="path123"
   d="m 3544,2318 c 128,66 231,115 337,164 -20,8 -45,16 -70,25 -113,-46 -236,-99 -354,-154 26,-14 59,-26 87,-36 z"
   class="fil42" /><path
   style="fill:#3caee3"
   inkscape:connector-curvature="0"
   id="path125"
   d="m 740,4218 c -106,91 -211,182 -302,269 164,82 315,154 484,205 94,-92 223,-185 346,-282 -178,-49 -358,-113 -528,-191 z"
   class="fil22" /><path
   style="fill:#faee35"
   inkscape:connector-curvature="0"
   id="path127"
   d="M 118,4718 C 177,4661 234,4604 294,4545 197,4488 99,4424 0,4357 v 100 c 0,103 46,197 118,261 z"
   class="fil43" /><path
   style="fill:#f6afce"
   inkscape:connector-curvature="0"
   id="path129"
   d="m 5057,3084 c -252,66 -504,88 -752,94 236,19 480,31 733,3 271,-99 521,-219 783,-399 -256,126 -506,217 -765,302 z"
   class="fil23" /><path
   style="fill:#94d9f8"
   inkscape:connector-curvature="0"
   id="path131"
   d="m 1895,4262 c -125,93 -256,188 -371,282 163,14 331,13 491,2 133,-107 272,-208 406,-301 -177,17 -347,19 -526,17 z"
   class="fil24" /><path
   style="fill:#9dcc56"
   inkscape:connector-curvature="0"
   id="path133"
   d="m 1449,4606 c -82,68 -157,134 -232,199 h 506 c 76,-67 151,-133 234,-201 -172,15 -342,16 -508,2 z"
   class="fil25" /><path
   style="fill:#42b769"
   inkscape:connector-curvature="0"
   id="path135"
   d="m 121,4721 c 42,-80 86,-160 133,-247 -6,-34 14,-72 20,-110 -58,115 -119,228 -172,338 6,6 13,13 20,19 z"
   class="fil44" /><path
   style="fill:#2897a6"
   inkscape:connector-curvature="0"
   id="path137"
   d="m 663,4008 c 165,-152 398,-289 618,-416 39,-22 77,-46 90,-71 -195,122 -443,254 -630,400 -8,36 -67,63 -78,87 z"
   class="fil26" /><path
   style="fill:#3caee3"
   inkscape:connector-curvature="0"
   id="path139"
   d="m 4204,3371 c -223,5 -432,3 -632,14 217,30 470,53 724,72 209,-24 425,-26 673,-61 -256,11 -515,-7 -765,-25 z"
   class="fil22" /><path
   style="fill:#c8c5e2"
   inkscape:connector-curvature="0"
   id="path141"
   d="m 3464,3391 c -199,6 -378,32 -561,50 219,47 435,68 650,92 183,-36 407,-50 629,-75 -240,-6 -500,-40 -718,-67 z"
   class="fil27" /><path
   style="fill:#f58634"
   inkscape:connector-curvature="0"
   id="path143"
   d="m 2811,3457 c -164,40 -335,77 -492,130 196,43 407,78 615,89 174,-44 350,-94 533,-127 -223,-21 -424,-46 -656,-92 z"
   class="fil28" /><path
   style="fill:#faab54"
   inkscape:connector-curvature="0"
   id="path145"
   d="m 2233,3612 c -157,58 -301,125 -456,197 194,50 391,81 579,107 181,-81 337,-143 504,-208 -209,-16 -420,-49 -627,-95 z"
   class="fil29" /><path
   style="fill:#bfc0c1"
   inkscape:connector-curvature="0"
   id="path147"
   d="m 1716,3844 c -130,79 -254,162 -371,243 164,55 350,94 527,120 123,-86 263,-172 420,-253 -194,-22 -384,-57 -577,-110 z"
   class="fil30" /><path
   style="fill:#3caee3"
   inkscape:connector-curvature="0"
   id="path149"
   d="m 4948,3217 c -261,50 -511,54 -737,50 251,28 497,52 753,31 242,-41 500,-120 760,-230 -265,68 -528,122 -776,148 z"
   class="fil22" /><path
   style="fill:#e92e91"
   inkscape:connector-curvature="0"
   id="path151"
   d="m 4108,3257 c -232,-10 -438,-40 -656,-57 231,62 471,124 707,151 220,5 448,-9 690,-30 -251,-5 -499,-16 -740,-64 z"
   class="fil31" /><path
   style="fill:#282828"
   inkscape:connector-curvature="0"
   id="path153"
   d="m 3354,3184 c -214,-22 -421,-40 -602,-43 213,85 435,159 671,220 198,-6 416,-3 625,-6 -237,-39 -468,-96 -694,-170 z"
   class="fil32" /><path
   style="fill:#94d9f8"
   inkscape:connector-curvature="0"
   id="path155"
   d="m 2662,3139 c -181,1 -356,12 -520,32 204,101 413,178 622,245 184,-27 360,-42 563,-59 -231,-51 -456,-133 -665,-218 z"
   class="fil24" /><path
   style="fill:#3caee3"
   inkscape:connector-curvature="0"
   id="path157"
   d="m 2068,3187 c -174,31 -330,68 -473,119 201,100 389,183 582,250 172,-45 338,-89 508,-123 -220,-70 -418,-146 -618,-245 z"
   class="fil22" /><path
   style="fill:#e92e91"
   inkscape:connector-curvature="0"
   id="path159"
   d="m 1514,3330 c -141,58 -279,121 -407,186 181,102 369,193 555,263 141,-70 297,-134 445,-197 -193,-66 -384,-152 -593,-252 z"
   class="fil31" /><path
   style="fill:#ee3539"
   inkscape:connector-curvature="0"
   id="path161"
   d="m 1055,3560 c -115,81 -230,156 -339,242 163,101 352,191 536,264 110,-84 232,-165 360,-245 -180,-68 -351,-153 -557,-261 z"
   class="fil33" /><path
   style="fill:#3f5ba7"
   inkscape:connector-curvature="0"
   id="path163"
   d="m 3303,2967 c -224,-57 -444,-122 -640,-163 225,134 437,252 682,353 207,28 431,56 653,80 -238,-69 -463,-153 -695,-270 z"
   class="fil34" /><path
   style="fill:#3caee3"
   inkscape:connector-curvature="0"
   id="path165"
   d="m 2576,2789 c -205,-45 -382,-64 -557,-82 202,145 414,274 622,390 176,0 386,26 601,46 -232,-98 -466,-227 -666,-354 z"
   class="fil22" /><path
   style="fill:#fbdd23"
   inkscape:connector-curvature="0"
   id="path167"
   d="m 1936,2701 c -173,2 -330,10 -481,33 191,144 404,281 604,398 149,-24 326,-35 499,-40 -212,-114 -412,-241 -622,-392 z"
   class="fil35" /><path
   style="fill:#43b767"
   inkscape:connector-curvature="0"
   id="path169"
   d="m 1373,2744 c -153,32 -307,68 -445,117 193,147 372,277 578,401 147,-50 304,-86 462,-121 -196,-116 -394,-249 -595,-397 z"
   class="fil36" /><path
   style="fill:#3f5ba7"
   inkscape:connector-curvature="0"
   id="path171"
   d="m 865,2888 c -128,59 -258,121 -366,200 176,139 351,272 518,384 138,-64 264,-131 411,-184 -201,-124 -381,-256 -564,-399 z"
   class="fil34" /><path
   style="fill:#83c456"
   inkscape:connector-curvature="0"
   id="path173"
   d="M 244,3380 C 162,3451 83,3522 0,3590 v 106 c 143,113 294,219 442,317 91,-87 209,-178 320,-261 C 590,3644 419,3519 243,3379 Z"
   class="fil37" /><path
   style="fill:#83c456"
   inkscape:connector-curvature="0"
   id="path175"
   d="m 0,4276 c 20,13 40,27 60,40 91,-81 190,-176 291,-259 C 240,3978 116,3891 0,3800 Z"
   class="fil37" /><path
   style="fill:#f6afce"
   inkscape:connector-curvature="0"
   id="path177"
   d="m 1864,2192 c -184,-41 -356,-72 -525,-90 197,195 393,374 597,538 168,12 360,46 545,78 -217,-162 -414,-333 -617,-526 z"
   class="fil23" /><path
   style="fill:#219ba0"
   inkscape:connector-curvature="0"
   id="path179"
   d="m 1253,2094 c -159,2 -301,22 -455,41 189,188 368,356 573,529 150,-23 320,-25 490,-24 -214,-172 -412,-350 -608,-546 z"
   class="fil38" /><path
   style="fill:#219ba0"
   inkscape:connector-curvature="0"
   id="path181"
   d="m 728,2151 c -146,36 -285,77 -412,137 186,184 353,346 531,506 133,-51 288,-89 451,-116 -207,-169 -391,-346 -571,-528 z"
   class="fil38" /><path
   style="fill:#43b767"
   inkscape:connector-curvature="0"
   id="path183"
   d="M 254,2318 C 170,2367 86,2419 0,2472 v 153 c 144,139 278,271 416,395 130,-69 243,-138 373,-197 C 609,2662 436,2497 255,2318 Z"
   class="fil36" /><path
   style="fill:#3caee3"
   inkscape:connector-curvature="0"
   id="path185"
   d="M 0,3443 C 47,3402 96,3360 147,3317 98,3276 49,3234 0,3191 Z"
   class="fil22" /><path
   style="fill:#83c456"
   inkscape:connector-curvature="0"
   id="path187"
   d="m 1033,1339 c -173,-34 -332,-50 -484,-49 166,216 353,433 552,651 149,-1 324,25 498,57 -208,-221 -386,-432 -566,-659 z"
   class="fil37" /><path
   style="fill:#43b767"
   inkscape:connector-curvature="0"
   id="path189"
   d="m 469,1287 c -146,20 -296,43 -434,86 175,211 351,418 535,620 141,-34 301,-48 451,-60 C 837,1728 650,1515 470,1287 Z"
   class="fil36" /><path
   style="fill:#43b767"
   inkscape:connector-curvature="0"
   id="path191"
   d="m 0,1221 c 120,-30 246,-51 375,-73 C 251,989 125,821 0,651 Z"
   class="fil36" /><path
   style="fill:#3eadd5"
   inkscape:connector-curvature="0"
   id="path193"
   d="m 2747,2239 c -214,-123 -421,-250 -650,-385 207,226 428,450 634,633 223,109 440,202 668,310 -218,-167 -434,-343 -652,-558 z"
   class="fil39" /><path
   style="fill:#a65f4d"
   inkscape:connector-curvature="0"
   id="path195"
   d="m 4283,3052 c -116,-38 -230,-76 -330,-108 22,13 45,27 74,43 99,30 220,70 328,84 -23,-6 -46,-12 -72,-20 z"
   class="fil41" /><path
   style="fill:#ffcc2b"
   inkscape:connector-curvature="0"
   id="path197"
   d="m 7289,688 c -173,265 -314,480 -459,688 37,-11 83,-27 129,-45 159,-219 330,-458 493,-696 -51,10 -111,35 -163,53 z"
   class="fil42" /><path
   style="fill:#e55638"
   inkscape:connector-curvature="0"
   id="path199"
   d="m 7804,780 c -9,7 -14,18 -14,30 l 3,86 c 0,10 4,18 11,25 z"
   class="fil45" /><path
   style="fill:#fefefe;fill-rule:nonzero"
   inkscape:connector-curvature="0"
   id="path201"
   d="m 7804,771 c -3,2 -6,5 -9,7 -8,8 -12,19 -12,31 v 0 l 3,86 v 0 0 c 0,12 6,23 14,30 1,1 3,2 4,3 v -21 c -2,-4 -4,-8 -4,-13 v 0 l -3,-86 v 0 c 0,-7 2,-15 7,-20 v -18 z"
   class="fil46" /><path
   style="fill:#d2d4d4"
   inkscape:connector-curvature="0"
   id="path203"
   d="m 7711,1885 4,96 c 1,23 20,40 42,40 l 47,-2 v -179 l -54,2 c -23,1 -40,20 -40,43 z"
   class="fil47" /><path
   style="fill:#fefefe;fill-rule:nonzero"
   inkscape:connector-curvature="0"
   id="path205"
   d="m 7704,1885 3,96 c 0,13 6,25 15,33 9,8 21,13 34,13 v 0 l 47,-2 v -14 l -47,2 c -9,0 -18,-3 -24,-9 -6,-6 -11,-14 -11,-24 l -4,-96 c 0,-9 3,-18 9,-24 v 0 c 6,-6 14,-11 24,-11 v 0 l 53,-2 v -14 l -54,2 c -13,0 -25,6 -33,15 v 0 c -8,9 -13,21 -13,34 z"
   class="fil46" /><path
   style="fill:#e55638"
   inkscape:connector-curvature="0"
   id="path207"
   d="m 7698,2001 3,72 c 1,17 15,30 32,30 l 72,-3 v -134 c -1,0 -3,0 -5,0 l -72,3 c -17,1 -30,15 -30,32 z"
   class="fil45" /><path
   style="fill:#fefefe;fill-rule:nonzero"
   inkscape:connector-curvature="0"
   id="path209"
   d="m 7691,2001 3,72 c 0,10 5,20 12,26 7,7 17,10 27,10 l 72,-3 v -14 l -72,3 c -7,0 -13,-2 -17,-6 -4,-4 -7,-10 -8,-17 l -3,-72 c 0,-7 2,-13 6,-17 4,-4 10,-7 17,-8 l 72,-3 v 0 c 2,0 3,0 4,0 v -14 c -1,0 -3,0 -5,0 v 0 l -72,3 c -10,0 -20,5 -26,12 -7,7 -10,17 -10,27 z"
   class="fil46" /><path
   style="fill:#9c416c"
   inkscape:connector-curvature="0"
   id="path211"
   d="m 7804,2164 -70,3 c -17,1 -30,15 -30,32 l 3,72 c 1,17 15,30 32,30 l 65,-2 v -134 z"
   class="fil48" /><path
   style="fill:#d2d4d4"
   inkscape:connector-curvature="0"
   id="path213"
   d="m 7804,2104 -33,1 c -13,0 -23,11 -22,24 l 2,54 c 0,13 11,23 24,22 l 30,-1 v -100 z"
   class="fil47" /><path
   style="fill:#fefefe;fill-rule:nonzero"
   inkscape:connector-curvature="0"
   id="path215"
   d="m 7804,2097 -34,1 c -8,0 -16,4 -21,10 v 0 c -5,6 -8,13 -8,22 l 2,54 v 0 c 0,8 4,16 10,21 6,5 13,8 21,8 v 0 l 29,-1 v -14 l -30,1 v 0 0 c -4,0 -8,-2 -11,-4 -3,-3 -5,-7 -5,-11 v 0 l -2,-54 c 0,-4 2,-8 4,-12 v 0 c 3,-3 7,-5 11,-5 v 0 l 33,-1 v -14 z"
   class="fil46" /><path
   style="fill:#d2d4d4"
   inkscape:connector-curvature="0"
   id="path217"
   d="m 7745,2160 -1,-35 c 0,-8 -7,-15 -15,-14 l -35,1 c -8,0 -15,7 -14,16 l 1,35 c 0,8 7,15 15,14 l 35,-1 c 8,0 15,-7 14,-15 z"
   class="fil47" /><path
   style="fill:#f3cb30"
   inkscape:connector-curvature="0"
   id="path219"
   d="m 7706,2331 4,107 c 1,25 22,45 47,44 l 48,-2 v -198 l -55,2 c -25,1 -45,22 -44,47 z"
   class="fil49" /><path
   style="fill:#fefefe;fill-rule:nonzero"
   inkscape:connector-curvature="0"
   id="path221"
   d="m 7699,2331 4,107 v 0 c 1,14 7,27 17,37 10,9 23,15 37,14 v 0 l 47,-2 v -14 l -48,2 v 0 c -10,0 -20,-4 -28,-10 -7,-7 -12,-16 -12,-26 v 0 l -4,-107 c 0,-11 4,-20 10,-28 7,-7 16,-12 27,-12 l 54,-2 v -14 l -55,2 c -15,1 -27,7 -37,17 -9,10 -15,23 -14,38 z"
   class="fil46" /><path
   style="fill:#d2d4d4"
   inkscape:connector-curvature="0"
   id="path223"
   d="m 7795,1787 1,33 c 0,5 3,10 8,12 v -59 c -6,2 -9,8 -9,14 z"
   class="fil47" /><path
   style="fill:#fefefe;fill-rule:nonzero"
   inkscape:connector-curvature="0"
   id="path225"
   d="m 7788,1787 1,33 c 0,6 3,11 7,15 2,2 5,4 8,5 v -17 c -1,-1 -1,-2 -1,-3 l -1,-33 c 0,-2 1,-4 2,-5 v 0 0 -15 c -4,1 -8,3 -10,6 v 0 c -4,4 -6,9 -6,15 z"
   class="fil46" /><path
   style="fill:#d2d4d4"
   inkscape:connector-curvature="0"
   id="path227"
   d="m 7781,2545 -1,-42 c 0,-10 -9,-18 -19,-17 l -42,2 c -10,0 -18,9 -17,19 l 1,42 c 0,10 9,18 19,17 l 42,-1 c 10,0 18,-9 17,-19 z"
   class="fil47" /><path
   style="fill:#f3cb30"
   inkscape:connector-curvature="0"
   id="path229"
   d="m 7712,1847 -1,-31 c 0,-7 -6,-13 -14,-13 l -31,1 c -7,0 -13,6 -13,14 l 1,31 c 0,7 6,13 14,13 l 31,-1 c 7,0 13,-6 13,-14 z"
   class="fil49" /><path
   style="fill:#fefefe;fill-rule:nonzero"
   inkscape:connector-curvature="0"
   id="path231"
   d="m 7704,1816 1,31 v 0 c 0,2 -1,3 -2,4 v 0 c -1,1 -2,2 -4,2 v 0 l -30,1 v 0 0 c -2,0 -3,-1 -4,-2 v 0 c -1,-1 -2,-3 -2,-4 v 0 l -1,-31 c 0,-2 1,-3 2,-4 1,-1 3,-2 4,-2 v 0 l 31,-1 c 2,0 3,1 4,2 1,1 2,3 2,4 z m 15,30 -1,-31 c 0,-6 -3,-10 -6,-14 -4,-3 -9,-6 -14,-5 v 0 l -31,1 c -5,0 -10,3 -14,6 -4,4 -5,9 -5,14 l 1,31 v 0 c 0,6 3,10 6,14 v 0 c 4,4 9,6 14,5 v 0 0 0 l 31,-1 v 0 0 c 6,0 10,-3 14,-6 v 0 c 3,-4 6,-9 6,-14 v 0 0 0 z"
   class="fil46" /><path
   style="fill:#d2d4d4"
   inkscape:connector-curvature="0"
   id="path233"
   d="m 7798,2980 3,82 c 0,5 1,9 3,13 v -116 c -4,6 -6,13 -6,21 z"
   class="fil47" /><path
   style="fill:#fefefe;fill-rule:nonzero"
   inkscape:connector-curvature="0"
   id="path235"
   d="m 7791,2981 3,82 c 0,10 4,19 10,26 v -140 l -2,2 c -7,8 -12,19 -11,30 z"
   class="fil46" /><polygon
   style="fill:#3caee3"
   id="polygon237"
   points="7687,4359 7714,821 7712,821 7685,4359 "
   class="fil22" /><polygon
   style="fill:#3caee3"
   id="polygon239"
   points="7793,4248 7804,2710 7804,2432 7791,4248 "
   class="fil22" /><path
   style="fill:#fefefe;fill-rule:nonzero"
   inkscape:connector-curvature="0"
   id="path241"
   d="m 7757,1025 2,61 v 0 c 0,8 4,15 10,21 5,5 13,8 21,8 v 0 h 15 v -7 l -15,1 v 0 c -6,0 -12,-2 -16,-6 -4,-4 -7,-9 -7,-16 v 0 l -2,-61 v 0 c 0,-6 2,-12 6,-16 4,-4 9,-7 15,-7 v 0 l 19,-1 v -7 l -19,1 v 0 c -8,0 -15,4 -21,9 -5,6 -8,13 -8,21 v 0 z"
   class="fil46" /><path
   style="fill:#fefefe;fill-rule:nonzero"
   inkscape:connector-curvature="0"
   id="path243"
   d="m 7792,1311 2,46 c 0,6 3,12 7,16 1,1 2,2 3,3 v -9 c -2,-3 -4,-6 -4,-10 l -2,-46 c 0,-4 1,-9 4,-12 l 1,-1 v -9 c -2,1 -4,3 -6,5 -4,4 -6,10 -6,17 v 0 z"
   class="fil46" /><path
   style="fill:#9c416c"
   inkscape:connector-curvature="0"
   id="path245"
   d="m 7804,1202 -29,1 c -11,0 -19,9 -19,20 l 2,46 c 0,11 9,19 20,19 l 26,-1 z"
   class="fil48" /><path
   style="fill:#fefefe;fill-rule:nonzero"
   inkscape:connector-curvature="0"
   id="path247"
   d="m 7804,1199 -29,1 c -6,0 -12,3 -16,7 v 0 c -4,4 -6,10 -6,16 l 2,46 c 0,6 3,12 7,16 v 0 c 4,4 10,6 16,6 l 26,-1 v -7 l -26,1 c -4,0 -9,-1 -11,-4 v 0 c -3,-3 -5,-7 -5,-11 l -2,-46 c 0,-4 1,-8 4,-11 v 0 c 3,-3 7,-5 11,-5 l 29,-1 z"
   class="fil46" /><path
   style="fill:#3caee3"
   inkscape:connector-curvature="0"
   id="path249"
   d="m 7804,1121 h -4 c -8,0 -14,7 -14,15 l 1,34 c 0,8 7,14 15,14 h 2 v -64 z"
   class="fil22" /><path
   style="fill:#fefefe;fill-rule:nonzero"
   inkscape:connector-curvature="0"
   id="path251"
   d="m 7804,1118 h -4 c -5,0 -10,2 -13,6 -3,3 -5,8 -5,13 l 1,34 c 0,5 2,9 6,13 3,3 8,5 13,5 v 0 h 2 v -7 h -2 c -3,0 -6,-1 -8,-3 -2,-2 -3,-5 -4,-8 l -1,-34 c 0,-3 1,-6 3,-8 2,-2 5,-3 8,-4 v 0 h 4 z"
   class="fil46" /><path
   style="fill:#d2d4d4"
   inkscape:connector-curvature="0"
   id="path253"
   d="m 7782,1199 -1,-22 c 0,-5 -5,-9 -10,-9 l -22,1 c -5,0 -9,5 -9,10 l 1,22 c 0,5 5,9 10,9 l 22,-1 c 5,0 9,-5 9,-10 z"
   class="fil47" /><path
   style="fill:#fefefe;fill-rule:nonzero"
   inkscape:connector-curvature="0"
   id="path255"
   d="m 7777,1177 1,22 c 0,2 -1,3 -2,4 -1,1 -3,2 -4,2 l -22,1 v 0 c -2,0 -3,-1 -4,-2 -1,-1 -2,-2 -2,-4 v 0 l -1,-22 c 0,-2 1,-3 2,-4 1,-1 3,-2 4,-2 v 0 l 22,-1 c 2,0 3,1 4,2 v 0 c 1,1 2,3 2,4 z m 8,22 -1,-22 c 0,-4 -2,-7 -4,-9 v 0 c -2,-2 -6,-4 -9,-4 v 0 l -22,1 c -3,0 -7,2 -9,4 -2,2 -4,6 -4,9 v 0 l 1,22 v 0 c 0,4 2,7 4,9 2,2 6,4 9,3 v 0 l 22,-1 c 3,0 7,-2 9,-4 2,-2 4,-6 3,-9 v 0 z"
   class="fil46" /><path
   style="fill:#e55638"
   inkscape:connector-curvature="0"
   id="path257"
   d="m 7721,1105 1,22 c 0,5 5,9 10,9 l 22,-1 c 5,0 9,-5 9,-10 l -1,-22 c 0,-5 -4,-9 -10,-9 l -22,1 c -5,0 -9,5 -9,10 z"
   class="fil45" /><path
   style="fill:#fefefe;fill-rule:nonzero"
   inkscape:connector-curvature="0"
   id="path259"
   d="m 7726,1126 -1,-22 c 0,-2 1,-3 2,-4 1,-1 2,-2 4,-2 l 22,-1 c 2,0 3,1 4,2 v 0 c 1,1 2,2 2,4 l 1,22 c 0,2 -1,3 -2,4 -1,1 -2,2 -4,2 l -22,1 c -2,0 -3,-1 -4,-2 -1,-1 -2,-2 -2,-4 z m -8,-22 1,22 c 0,4 2,7 4,9 2,2 6,4 9,3 l 22,-1 c 4,0 7,-2 9,-4 2,-2 4,-6 3,-9 l -1,-22 c 0,-4 -2,-7 -4,-9 v 0 c -2,-2 -6,-4 -9,-3 l -22,1 c -4,0 -7,2 -9,4 -2,2 -4,6 -3,9 z"
   class="fil46" /><path
   style="fill:#9c416c"
   inkscape:connector-curvature="0"
   id="path261"
   d="m 7716,1246 1,16 c 0,4 3,7 7,7 l 16,-1 c 4,0 7,-3 7,-7 l -1,-16 c 0,-4 -3,-7 -7,-7 l -16,1 c -4,0 -7,3 -7,7 z"
   class="fil48" /><path
   style="fill:#fefefe;fill-rule:nonzero"
   inkscape:connector-curvature="0"
   id="path263"
   d="m 7720,1263 -1,-17 c 0,-1 0,-2 1,-3 v 0 c 1,-1 2,-1 3,-1 l 16,-1 c 1,0 2,0 3,1 1,1 1,2 1,2 l 1,16 c 0,1 0,2 -1,3 -1,1 -2,1 -2,1 l -17,1 c -1,0 -2,0 -2,-1 v 0 c -1,-1 -1,-2 -1,-2 z m -7,-16 1,16 c 0,3 1,5 4,7 v 0 c 2,2 5,3 7,3 l 16,-1 c 3,0 6,-1 7,-3 2,-2 3,-5 3,-8 l -1,-16 c 0,-3 -1,-6 -3,-7 -2,-2 -5,-3 -8,-3 l -17,1 c -3,0 -5,1 -7,3 v 0 c -2,2 -3,5 -3,7 v 0 z"
   class="fil46" /><path
   style="fill:#d2d4d4"
   inkscape:connector-curvature="0"
   id="path265"
   d="m 7735,1314 -1,-16 c 0,-4 -3,-7 -7,-7 l -16,1 c -4,0 -7,3 -7,7 l 1,16 c 0,4 4,7 7,7 l 16,-1 c 4,0 7,-3 7,-7 z"
   class="fil47" /><path
   style="fill:#fefefe;fill-rule:nonzero"
   inkscape:connector-curvature="0"
   id="path267"
   d="m 7731,1297 1,16 c 0,1 0,2 -1,2 v 0 c -1,1 -1,1 -2,1 v 0 l -16,1 v 0 c -1,0 -2,0 -3,-1 v 0 c -1,-1 -1,-1 -1,-2 v 0 l -1,-16 c 0,-1 0,-2 1,-2 1,-1 1,-1 2,-1 l 16,-1 c 1,0 2,0 2,1 1,1 1,1 1,2 z m 8,16 -1,-16 c 0,-3 -1,-6 -3,-7 -2,-2 -5,-3 -8,-3 l -16,1 c -3,0 -5,1 -7,3 -2,2 -3,5 -3,7 l 1,16 v 0 c 0,3 2,6 3,7 v 0 c 2,2 5,3 7,3 v 0 l 16,-1 c 3,0 5,-1 7,-3 2,-2 3,-5 3,-8 v 0 z"
   class="fil46" /><path
   style="fill:#d2d4d4"
   inkscape:connector-curvature="0"
   id="path269"
   d="m 7793,1371 v -12 c 0,-3 -3,-5 -5,-5 h -12 c -3,0 -5,2 -5,5 v 12 c 0,3 3,5 5,5 h 12 c 3,0 5,-2 5,-5 z"
   class="fil47" /><path
   style="fill:#fefefe;fill-rule:nonzero"
   inkscape:connector-curvature="0"
   id="path271"
   d="m 7789,1359 1,12 v 0 c 0,0 0,1 -1,1 v 0 c 0,0 -1,1 -1,1 v 0 h -12 c -1,0 -1,0 -1,0 v 0 c 0,0 -1,-1 -1,-1 v 0 -12 c 0,0 0,-1 0,-1 v 0 c 0,0 1,-1 1,-1 v 0 h 12 v 0 c 0,0 1,0 1,0 0,0 0,1 1,1 z m 7,12 -1,-12 v 0 c 0,-2 -1,-5 -3,-6 -1,-1 -4,-2 -6,-2 v 0 h -12 c -2,0 -5,1 -6,3 v 0 c -2,2 -2,4 -2,6 v 12 c 0,2 1,5 3,6 v 0 c 2,1 4,2 6,2 h 12 v 0 c 2,0 5,-1 6,-3 v 0 c 1,-2 2,-4 2,-6 v 0 z"
   class="fil46" /><path
   style="fill:#d2d4d4"
   inkscape:connector-curvature="0"
   id="path273"
   d="m 7714,1289 v -8 c 0,-2 -2,-3 -3,-3 h -8 c -2,0 -3,2 -3,4 v 8 c 0,2 2,3 4,3 h 8 c 2,0 3,-2 3,-4 z"
   class="fil47" /><path
   style="fill:#fefefe;fill-rule:nonzero"
   inkscape:connector-curvature="0"
   id="path275"
   d="m 7710,1282 v 8 h -8 v -8 z m 7,8 v -8 c 0,-2 -1,-4 -2,-5 v 0 c -1,-1 -3,-2 -5,-2 v 0 h -8 c -2,0 -4,1 -5,2 -1,1 -2,3 -2,5 v 8 0 c 0,2 1,4 2,5 1,1 3,2 5,2 v 0 h 8 c 2,0 4,-1 5,-2 1,-1 2,-3 2,-5 z"
   class="fil46" /><path
   style="fill:#f3cb30"
   inkscape:connector-curvature="0"
   id="path277"
   d="m 7705,1328 1,24 c 0,6 5,10 11,10 l 24,-1 c 6,0 10,-5 10,-11 l -1,-24 c 0,-6 -5,-10 -11,-10 l -24,1 c -6,0 -10,5 -10,11 z"
   class="fil49" /><path
   style="fill:#fefefe;fill-rule:nonzero"
   inkscape:connector-curvature="0"
   id="path279"
   d="m 7709,1352 -1,-24 c 0,-2 1,-4 2,-5 v 0 c 1,-1 3,-2 5,-2 l 24,-1 c 2,0 4,1 5,2 v 0 c 1,1 2,3 2,5 l 1,24 c 0,2 -1,4 -2,5 v 0 c -1,1 -3,2 -5,2 v 0 l -24,1 c -2,0 -4,-1 -5,-2 -1,-1 -2,-3 -2,-5 z m -8,-24 1,24 c 0,4 2,7 4,10 3,2 6,4 10,4 l 24,-1 c 4,0 7,-2 10,-5 v 0 c 2,-3 4,-6 4,-10 l -1,-24 c 0,-4 -2,-7 -4,-10 v 0 c -3,-2 -6,-4 -10,-4 l -24,1 c -4,0 -7,2 -10,5 v 0 c -2,3 -4,6 -4,10 z"
   class="fil46" /><path
   style="fill:#d2d4d4"
   inkscape:connector-curvature="0"
   id="path281"
   d="m 7725,1205 v 7 c 0,2 2,3 3,3 h 8 c 2,0 3,-2 3,-3 v -8 c 0,-2 -2,-3 -3,-3 h -7 c -2,0 -3,2 -3,3 z"
   class="fil47" /><path
   style="fill:#fefefe;fill-rule:nonzero"
   inkscape:connector-curvature="0"
   id="path283"
   d="m 7729,1212 v -7 h 7 v 7 z m -7,-7 v 8 c 0,2 1,3 2,5 1,1 3,2 5,2 h 7 c 2,0 3,-1 5,-2 v 0 c 1,-1 2,-3 2,-5 v 0 -7 c 0,-2 -1,-4 -2,-5 -1,-1 -3,-2 -5,-2 v 0 h -7 c -2,0 -4,1 -5,2 -1,1 -2,3 -2,5 v 0 z"
   class="fil46" /><path
   style="fill:#d2d4d4"
   inkscape:connector-curvature="0"
   id="path285"
   d="m 7742,1303 v 8 c 0,2 2,3 4,3 h 8 c 2,0 4,-2 3,-4 v -8 c 0,-2 -2,-4 -4,-3 h -8 c -2,0 -3,2 -3,4 z"
   class="fil47" /><path
   style="fill:#fefefe;fill-rule:nonzero"
   inkscape:connector-curvature="0"
   id="path287"
   d="m 7745,1303 z m 0,8 v -8 h 8 v 8 z m -7,-8 v 8 c 0,2 1,4 2,5 1,1 3,2 5,2 h 8 c 2,0 4,-1 5,-2 v 0 c 1,-1 2,-3 2,-5 v 0 -8 c 0,-2 -1,-4 -2,-5 -1,-1 -3,-2 -5,-2 v 0 h -8 c -2,0 -4,1 -5,2 v 0 c -1,1 -2,3 -2,5 z"
   class="fil46" /><path
   style="fill:#d2d4d4"
   inkscape:connector-curvature="0"
   id="path289"
   d="m 7737,1373 v -4 c 0,-1 -1,-2 -2,-2 h -4 c -1,0 -2,1 -2,2 v 4 c 0,1 1,2 2,2 h 4 c 1,0 2,-1 2,-2 z"
   class="fil47" /><path
   style="fill:#fefefe;fill-rule:nonzero"
   inkscape:connector-curvature="0"
   id="path291"
   d="m 7734,1371 v 0 h -1 v 0 z m 7,2 v -4 0 c 0,-1 -1,-3 -2,-4 v 0 c -1,-1 -2,-1 -4,-1 v 0 0 h -4 v 0 c -1,0 -3,1 -4,2 v 0 c -1,1 -1,2 -1,4 v 0 4 0 c 0,1 1,3 2,4 v 0 c 1,1 2,1 3,1 v 0 0 h 4 v 0 c 2,0 3,-1 4,-2 v 0 c 1,-1 1,-2 1,-4 v 0 z"
   class="fil46" /><path
   style="fill:#d2d4d4"
   inkscape:connector-curvature="0"
   id="path293"
   d="m 7722,1377 v -10 c 0,-2 -2,-4 -4,-4 h -10 c -2,0 -4,2 -4,4 v 10 c 0,2 2,4 4,4 h 10 c 2,0 4,-2 4,-4 z"
   class="fil47" /><path
   style="fill:#fefefe;fill-rule:nonzero"
   inkscape:connector-curvature="0"
   id="path295"
   d="m 7718,1367 v 10 c 0,0 0,0 0,0 v 0 c 0,0 0,0 0,0 v 0 h -10 c 0,0 0,0 0,0 0,0 0,0 0,0 v -10 c 0,0 0,0 0,0 0,0 0,0 0,0 h 10 c 0,0 0,0 1,0 v 0 c 0,0 0,0 0,0 z m 7,9 v -10 c 0,-2 -1,-4 -2,-5 -1,-1 -3,-2 -6,-2 v 0 h -10 c -2,0 -4,1 -5,2 -1,1 -2,3 -2,6 v 0 10 c 0,2 1,4 2,5 v 0 c 2,1 3,2 6,2 v 0 h 10 c 2,0 4,-1 5,-2 1,-1 2,-3 2,-5 v 0 z"
   class="fil46" /><path
   style="fill:#d2d4d4"
   inkscape:connector-curvature="0"
   id="path297"
   d="m 7706,1218 v -7 c 0,-2 -1,-3 -3,-3 h -7 c -2,0 -3,2 -3,3 v 7 c 0,2 1,3 3,3 h 7 c 2,0 3,-2 3,-3 z"
   class="fil47" /><path
   style="fill:#fefefe;fill-rule:nonzero"
   inkscape:connector-curvature="0"
   id="path299"
   d="m 7702,1212 v 6 h -6 v -6 z m 7,6 v -7 c 0,-2 -1,-3 -2,-5 v 0 c -1,-1 -3,-2 -5,-2 h -7 c -2,0 -3,1 -5,2 -1,1 -2,3 -2,5 v 7 c 0,2 1,3 2,5 v 0 c 1,1 3,2 5,2 h 7 c 2,0 3,-1 4,-2 v 0 c 1,-1 2,-3 2,-5 v 0 z"
   class="fil46" /><path
   style="fill:#d2d4d4"
   inkscape:connector-curvature="0"
   id="path301"
   d="m 7778,1485 -1,-12 c 0,-3 2,-5 5,-5 h 12 c 3,0 5,2 5,5 v 12 c 0,3 -2,5 -5,5 h -12 c -3,0 -5,-2 -5,-5 z"
   class="fil47" /><path
   style="fill:#fefefe;fill-rule:nonzero"
   inkscape:connector-curvature="0"
   id="path303"
   d="m 7774,1472 1,12 c 0,2 1,5 3,6 v 0 c 2,2 4,3 6,2 v 0 h 12 c 2,0 5,-1 6,-3 1,-2 2,-4 2,-6 v 0 l -1,-12 c 0,-2 -1,-5 -3,-6 -2,-2 -4,-2 -6,-2 h -12 c -2,0 -4,1 -6,3 v 0 c -1,2 -2,4 -2,6 z m 7,12 v -12 c 0,0 0,-1 0,-1 v 0 c 0,0 1,-1 1,-1 h 12 c 1,0 1,0 1,1 v 0 c 0,0 1,1 1,1 v 0 l 1,12 c 0,0 0,1 -1,1 0,0 -1,1 -1,1 h -12 c -1,0 -1,0 -1,0 v 0 c 0,0 -1,-1 -1,-1 v 0 z"
   class="fil46" /><path
   style="fill:#d2d4d4"
   inkscape:connector-curvature="0"
   id="path305"
   d="m 7740,1155 v -6 c 0,-1 1,-3 2,-3 h 6 c 1,0 3,1 3,2 v 6 c 0,1 -1,3 -2,3 h -6 c -1,0 -3,-1 -3,-2 z"
   class="fil47" /><path
   style="fill:#fefefe;fill-rule:nonzero"
   inkscape:connector-curvature="0"
   id="path307"
   d="m 7736,1149 v 6 c 0,2 1,3 2,4 1,1 3,2 4,2 h 6 v 0 c 2,0 3,-1 4,-2 v 0 c 1,-1 2,-3 2,-4 v 0 -6 c 0,-2 -1,-3 -2,-4 v 0 c -1,-1 -3,-2 -4,-2 v 0 h -6 c -2,0 -3,1 -4,2 v 0 c -1,1 -2,3 -2,4 z m 7,5 v -4 h 4 v 4 z"
   class="fil46" /><path
   style="fill:#f58634"
   inkscape:connector-curvature="0"
   id="path309"
   d="m 0,2827 c 224,-30 434,-43 628,-35 385,13 732,79 1059,175 333,97 648,226 959,361 373,148 727,331 1088,459 370,131 744,202 1140,116 426,-91 834,-388 1220,-744 368,-339 713,-727 1054,-1047 238,-224 457,-367 658,-450 v -13 c -199,84 -416,227 -651,450 -341,322 -686,713 -1056,1055 -388,359 -798,659 -1226,753 -397,87 -774,21 -1146,-107 -365,-124 -722,-305 -1094,-456 -317,-126 -634,-252 -969,-345 -330,-92 -678,-155 -1066,-162 -185,-3 -384,10 -596,40 v -49 z"
   class="fil28" /><path
   style="fill:#3caee3"
   inkscape:connector-curvature="0"
   id="path311"
   d="m 7804,4060 c -86,-62 -171,-124 -254,-186 -342,-238 -642,-488 -942,-679 -294,-187 -593,-323 -948,-348 -394,-27 -869,106 -1402,307 -564,212 -1210,506 -1874,763 -38,15 -75,29 -112,43 l -1,6 c 31,-12 62,-24 93,-36 669,-260 1319,-557 1887,-772 536,-203 1015,-338 1411,-312 357,23 660,156 956,341 302,189 605,436 947,675 78,55 158,111 239,167 v 32 z"
   class="fil22" /><path
   style="fill:#e92e91"
   inkscape:connector-curvature="0"
   id="path313"
   d="m 2341,4806 c 666,-247 1407,-700 2073,-1142 465,-360 917,-748 1348,-1091 412,-326 808,-614 1194,-806 v 0 c 324,-143 597,-198 849,-217 v -19 c -247,21 -516,77 -831,214 v 0 c -400,200 -807,494 -1225,825 -440,347 -901,741 -1375,1105 -680,447 -1409,895 -2062,1130 h 29 z"
   class="fil31" /><path
   style="fill:#3caee3"
   inkscape:connector-curvature="0"
   id="path315"
   d="m 4373,2727 c 0,-20 -1,-40 -1,-60 0,-14 14,-29 30,-34 23,-7 45,-13 70,-21 15,-5 30,3 30,16 0,20 1,40 1,59 0,15 -14,30 -30,35 -23,7 -46,14 -69,21 -16,5 -29,-3 -30,-16 z"
   class="fil22" /><path
   style="fill:#3caee3"
   inkscape:connector-curvature="0"
   id="path317"
   d="m 2285,4806 c 2,-9 7,-20 16,-29 23,-26 47,-52 72,-79 17,-18 39,-25 51,-16 18,15 36,27 54,40 13,10 9,32 -9,52 l -29,32 z"
   class="fil22" /><path
   style="fill:#d2d4d4"
   inkscape:connector-curvature="0"
   id="path319"
   d="m 7095,2222 c 2,-16 3,-32 6,-47 2,-11 -8,-20 -19,-20 -18,1 -35,1 -52,2 -12,0 -24,10 -25,21 -2,16 -5,32 -7,48 -1,11 7,19 20,19 17,0 35,-1 52,-2 13,-1 24,-9 25,-21 z"
   class="fil47" /><path
   style="fill:#f3cb30"
   inkscape:connector-curvature="0"
   id="path321"
   d="m 4999,3943 c -10,-21 -21,-41 -30,-62 -6,-14 3,-36 20,-48 23,-15 46,-32 71,-48 18,-12 37,-9 44,5 10,20 20,41 30,62 7,14 -1,35 -18,47 -24,17 -49,33 -73,49 -17,12 -36,9 -43,-5 z"
   class="fil49" /><path
   style="fill:#3caee3"
   inkscape:connector-curvature="0"
   id="path323"
   d="m 3472,2434 c -5,-10 -9,-20 -14,-31 -3,-7 -13,-8 -24,-3 -15,9 -30,17 -45,26 -10,6 -16,17 -13,24 5,10 8,21 13,32 3,8 14,8 25,2 15,-9 30,-18 45,-26 10,-6 16,-17 13,-24 z"
   class="fil22" /><path
   style="fill:#3caee3"
   inkscape:connector-curvature="0"
   id="path325"
   d="m 1896,3172 c 0,-20 -2,-40 -1,-60 0,-14 14,-29 30,-34 22,-7 45,-13 70,-21 15,-5 30,3 30,16 0,20 1,40 1,59 0,15 -14,30 -30,35 -23,7 -46,14 -69,21 -17,5 -29,-3 -30,-17 z"
   class="fil22" />
</svg>