<svg xmlns="http://www.w3.org/2000/svg" xml:space="preserve" width="747.999" height="461.333" version="1.1" viewBox="0 0 7792 4806" id="svg328" shape-rendering="geometricPrecision" text-rendering="geometricPrecision" image-rendering="optimizeQuality" fill-rule="evenodd" clip-rule="evenodd"><defs id="defs4"><style type="text/css" id="style2">.fil38{fill:#219ba0}.fil32{fill:#282828}.fil26{fill:#2897a6}.fil22{fill:#3caee3}.fil39{fill:#3eadd5}.fil34{fill:#3f5ba7}.fil36{fill:#43b767}.fil37{fill:#83c456}.fil24{fill:#94d9f8}.fil48{fill:#9c416c}.fil25{fill:#9dcc56}.fil41{fill:#a65f4d}.fil30{fill:#bfc0c1}.fil27{fill:#c8c5e2}.fil47{fill:#d2d4d4}.fil45{fill:#e55638}.fil31{fill:#e92e91}.fil33{fill:#ee3539}.fil49{fill:#f3cb30}.fil28{fill:#f58634}.fil23{fill:#f6afce}.fil29{fill:#faab54}.fil35{fill:#fbdd23}.fil42{fill:#ffcc2b}.fil46{fill:#fefefe;fill-rule:nonzero}</style></defs><path id="path53" d="M7689 3295c39 27 78 55 115 82v131c-43 17-86 32-134 43-72-56-163-114-253-176 95-17 187-44 272-79z" class="fil22" fill="#3caee3"/><path id="path55" d="M5039 2727c142-24 277-61 408-108-120 59-247 108-382 152-153 29-301 35-461 31 148-19 291-40 435-75z" class="fil23" fill="#f6afce"/><path id="path57" d="M7025 3254c90 61 184 122 268 181-92-1-190-10-285-23-96-65-196-130-291-191 106 18 205 27 308 33z" class="fil24" fill="#94d9f8"/><path id="path59" d="M7348 3473c89 65 170 125 253 186-91 2-180-1-274-11-94-69-178-134-275-202 103 18 202 27 295 27z" class="fil25" fill="#9dcc56"/><path id="path61" d="M7628 3684c61 44 120 86 176 127v51c-60 5-121 8-187 3-79-61-164-127-249-191 90 10 177 11 260 9z" class="fil24" fill="#94d9f8"/><path id="path63" d="M7696 3182c-124-95-285-184-436-271-27-15-54-32-66-46 136 82 305 172 441 263 11 21 51 40 61 54z" class="fil26" fill="#2897a6"/><path id="path65" d="M5541 2729c123-17 240-27 354-31-116 28-251 60-388 85-115 24-234 41-367 84 133-56 271-95 402-138z" class="fil22" fill="#3caee3"/><path id="path67" d="M5956 2696c116 10 221 18 331 40-118 19-235 38-354 49-108-8-237-13-363-4 129-30 270-54 385-85z" class="fil27" fill="#c8c5e2"/><path id="path69" d="M6343 2748c101 25 208 58 309 96-105 17-221 26-337 32-110-36-218-59-329-83 124-9 232-27 358-45z" class="fil28" fill="#f58634"/><path id="path71" d="M6707 2862c103 44 199 90 302 140-103 18-212 27-317 30-120-52-222-99-330-138 117-7 233-14 344-33z" class="fil29" fill="#faab54"/><path id="path73" d="M7052 3026c90 53 178 107 261 159-85 22-187 33-285 39-87-55-184-111-292-169 109-1 213-11 315-29z" class="fil30" fill="#bfc0c1"/><path id="path75" d="M5120 2774c142-40 277-71 398-107-129 55-258 96-392 151-133 30-277 61-424 90 143-50 286-93 419-134z" class="fil22" fill="#3caee3"/><path id="path77" d="M5573 2656c124-35 235-53 353-78-116 53-240 94-362 138-120 22-244 51-375 85 131-49 260-100 384-146z" class="fil31" fill="#e92e91"/><path id="path79" d="M5979 2573c118-11 233-17 337-12-107 44-219 85-343 118-112 5-235 11-349 30 122-44 242-86 354-135z" class="fil32" fill="#282828"/><path id="path81" d="M6368 2562c106 13 210 28 309 51-100 46-207 80-315 111-111-21-216-37-334-43 121-35 235-73 339-119z" class="fil24" fill="#94d9f8"/><path id="path83" d="M6724 2628c106 28 205 60 298 99-99 43-193 80-293 107-108-36-213-69-319-100 115-27 215-64 314-106z" class="fil22" fill="#3caee3"/><path id="path85" d="M7074 2746c93 43 186 88 272 134-87 45-180 85-275 113-96-49-198-96-296-139 100-27 195-64 299-108z" class="fil31" fill="#e92e91"/><path id="path87" d="M7385 2909c82 52 162 101 242 155-77 47-170 88-264 117-80-55-166-108-255-162 92-28 177-64 277-110z" class="fil33" fill="#ee3539"/><path id="path89" d="M5967 2443c117-34 232-62 337-80-104 73-204 133-324 194-112 18-232 44-350 74 118-59 228-118 338-189z" class="fil34" fill="#3f5ba7"/><path id="path91" d="M6351 2358c112-9 211-11 311-6-91 67-191 131-291 184-101-3-218 0-336 15 113-61 224-124 316-193z" class="fil22" fill="#3caee3"/><path id="path93" d="M6710 2356c101 12 195 30 288 56-85 68-185 130-280 184-92-26-197-40-299-55 102-52 195-115 290-185z" class="fil35" fill="#fbdd23"/><path id="path95" d="M7048 2424c96 30 192 61 283 101-86 68-167 128-265 184-95-39-194-72-293-102 93-55 185-114 275-183z" class="fil36" fill="#43b767"/><path id="path97" d="M7373 2543c86 41 173 84 249 134-76 68-154 131-231 185-93-47-179-93-275-135 95-55 176-117 256-185z" class="fil34" fill="#3f5ba7"/><path id="path99" d="M7804 3179c-65-48-141-97-213-144 73-47 143-103 213-165z" class="fil37" fill="#83c456"/><path id="path101" d="M6656 2067c100-10 196-11 292-6-80 94-162 179-251 260-97-7-203-1-305 5 96-80 180-165 263-258z" class="fil23" fill="#f6afce"/><path id="path103" d="M6998 2063c94 15 181 37 275 61-76 91-150 172-239 253-92-24-193-39-292-53 93-82 177-168 256-262z" class="fil38" fill="#219ba0"/><path id="path105" d="M7317 2138c92 30 181 63 265 103-74 93-143 172-218 249-87-38-185-71-285-99 90-80 166-164 238-254z" class="fil38" fill="#219ba0"/><path id="path107" d="M7624 2262c59 32 119 66 180 98v110c-49 61-96 119-146 173-88-44-167-90-253-133 75-77 146-159 219-248z" class="fil36" fill="#43b767"/><path id="path109" d="M6987 1653c96-2 187 3 276 15-58 109-127 216-205 322-88-14-186-14-283-12 81-108 147-212 211-325z" class="fil37" fill="#83c456"/><path id="path111" d="M7310 1673c90 23 181 44 269 76-63 107-128 212-198 313-89-30-185-49-276-69 70-100 141-206 205-319z" class="fil36" fill="#43b767"/><path id="path113" d="M7520 1241c84 26 164 60 251 94-55 119-107 231-161 343-88-30-177-52-269-75 61-115 121-239 180-362z" class="fil36" fill="#43b767"/><path id="path115" d="M6147 2026c100-64 199-118 307-180-78 117-166 229-250 329-110 49-216 104-327 159 95-90 183-197 270-307z" class="fil39" fill="#3eadd5"/><path id="path117" d="M7738 25c-9 5-19 10-28 15l6-43c8 9 15 18 22 27z" fill="#a8cf46"/><path id="path119" d="M5436 2541c57-31 113-60 161-93-9 12-19 23-31 38-49 25-108 56-162 85 11-10 21-20 33-30z" class="fil41" fill="#a65f4d"/><path id="path121" d="M1469 929c85 35 165 79 245 122 9 37 11 73 18 109-74-39-163-82-242-114-5-38-17-78-22-117z" class="fil36" fill="#43b767"/><path id="path123" d="M3544 2318c128 66 231 115 337 164-20 8-45 16-70 25-113-46-236-99-354-154 26-14 59-26 87-36z" class="fil42" fill="#ffcc2b"/><path id="path125" d="M740 4218c-106 91-211 182-302 269 164 82 315 154 484 205 94-92 223-185 346-282-178-49-358-113-528-191z" class="fil22" fill="#3caee3"/><path id="path127" d="M118 4718c59-57 116-114 176-173-97-57-195-121-294-188v100c0 103 46 197 118 261z" fill="#faee35"/><path id="path129" d="M5057 3084c-252 66-504 88-752 94 236 19 480 31 733 3 271-99 521-219 783-399-256 126-506 217-765 302z" class="fil23" fill="#f6afce"/><path id="path131" d="M1895 4262c-125 93-256 188-371 282 163 14 331 13 491 2 133-107 272-208 406-301-177 17-347 19-526 17z" class="fil24" fill="#94d9f8"/><path id="path133" d="M1449 4606c-82 68-157 134-232 199h506c76-67 151-133 234-201-172 15-342 16-508 2z" class="fil25" fill="#9dcc56"/><path id="path135" d="M121 4721c42-80 86-160 133-247-6-34 14-72 20-110-58 115-119 228-172 338 6 6 13 13 20 19z" fill="#42b769"/><path id="path137" d="M663 4008c165-152 398-289 618-416 39-22 77-46 90-71-195 122-443 254-630 400-8 36-67 63-78 87z" class="fil26" fill="#2897a6"/><path id="path139" d="M4204 3371c-223 5-432 3-632 14 217 30 470 53 724 72 209-24 425-26 673-61-256 11-515-7-765-25z" class="fil22" fill="#3caee3"/><path id="path141" d="M3464 3391c-199 6-378 32-561 50 219 47 435 68 650 92 183-36 407-50 629-75-240-6-500-40-718-67z" class="fil27" fill="#c8c5e2"/><path id="path143" d="M2811 3457c-164 40-335 77-492 130 196 43 407 78 615 89 174-44 350-94 533-127-223-21-424-46-656-92z" class="fil28" fill="#f58634"/><path id="path145" d="M2233 3612c-157 58-301 125-456 197 194 50 391 81 579 107 181-81 337-143 504-208-209-16-420-49-627-95z" class="fil29" fill="#faab54"/><path id="path147" d="M1716 3844c-130 79-254 162-371 243 164 55 350 94 527 120 123-86 263-172 420-253-194-22-384-57-577-110z" class="fil30" fill="#bfc0c1"/><path id="path149" d="M4948 3217c-261 50-511 54-737 50 251 28 497 52 753 31 242-41 500-120 760-230-265 68-528 122-776 148z" class="fil22" fill="#3caee3"/><path id="path151" d="M4108 3257c-232-10-438-40-656-57 231 62 471 124 707 151 220 5 448-9 690-30-251-5-499-16-740-64z" class="fil31" fill="#e92e91"/><path id="path153" d="M3354 3184c-214-22-421-40-602-43 213 85 435 159 671 220 198-6 416-3 625-6-237-39-468-96-694-170z" class="fil32" fill="#282828"/><path id="path155" d="M2662 3139c-181 1-356 12-520 32 204 101 413 178 622 245 184-27 360-42 563-59-231-51-456-133-665-218z" class="fil24" fill="#94d9f8"/><path id="path157" d="M2068 3187c-174 31-330 68-473 119 201 100 389 183 582 250 172-45 338-89 508-123-220-70-418-146-618-245z" class="fil22" fill="#3caee3"/><path id="path159" d="M1514 3330c-141 58-279 121-407 186 181 102 369 193 555 263 141-70 297-134 445-197-193-66-384-152-593-252z" class="fil31" fill="#e92e91"/><path id="path161" d="M1055 3560c-115 81-230 156-339 242 163 101 352 191 536 264 110-84 232-165 360-245-180-68-351-153-557-261z" class="fil33" fill="#ee3539"/><path id="path163" d="M3303 2967c-224-57-444-122-640-163 225 134 437 252 682 353 207 28 431 56 653 80-238-69-463-153-695-270z" class="fil34" fill="#3f5ba7"/><path id="path165" d="M2576 2789c-205-45-382-64-557-82 202 145 414 274 622 390 176 0 386 26 601 46-232-98-466-227-666-354z" class="fil22" fill="#3caee3"/><path id="path167" d="M1936 2701c-173 2-330 10-481 33 191 144 404 281 604 398 149-24 326-35 499-40-212-114-412-241-622-392z" class="fil35" fill="#fbdd23"/><path id="path169" d="M1373 2744c-153 32-307 68-445 117 193 147 372 277 578 401 147-50 304-86 462-121-196-116-394-249-595-397z" class="fil36" fill="#43b767"/><path id="path171" d="M865 2888c-128 59-258 121-366 200 176 139 351 272 518 384 138-64 264-131 411-184-201-124-381-256-564-399z" class="fil34" fill="#3f5ba7"/><path id="path173" d="M244 3380c-82 71-161 142-244 210v106c143 113 294 219 442 317 91-87 209-178 320-261-172-108-343-233-519-373z" class="fil37" fill="#83c456"/><path id="path175" d="M0 4276c20 13 40 27 60 40 91-81 190-176 291-259-111-79-235-166-351-257z" class="fil37" fill="#83c456"/><path id="path177" d="M1864 2192c-184-41-356-72-525-90 197 195 393 374 597 538 168 12 360 46 545 78-217-162-414-333-617-526z" class="fil23" fill="#f6afce"/><path id="path179" d="M1253 2094c-159 2-301 22-455 41 189 188 368 356 573 529 150-23 320-25 490-24-214-172-412-350-608-546z" class="fil38" fill="#219ba0"/><path id="path181" d="M728 2151c-146 36-285 77-412 137 186 184 353 346 531 506 133-51 288-89 451-116-207-169-391-346-571-528z" class="fil38" fill="#219ba0"/><path id="path183" d="M254 2318c-84 49-168 101-254 154v153c144 139 278 271 416 395 130-69 243-138 373-197-180-161-353-326-534-505z" class="fil36" fill="#43b767"/><path id="path185" d="M0 3443c47-41 96-83 147-126-49-41-98-83-147-126z" class="fil22" fill="#3caee3"/><path id="path187" d="M1033 1339c-173-34-332-50-484-49 166 216 353 433 552 651 149-1 324 25 498 57-208-221-386-432-566-659z" class="fil37" fill="#83c456"/><path id="path189" d="M469 1287c-146 20-296 43-434 86 175 211 351 418 535 620 141-34 301-48 451-60-184-205-371-418-551-646z" class="fil36" fill="#43b767"/><path id="path191" d="M0 1221c120-30 246-51 375-73C251 989 125 821 0 651z" class="fil36" fill="#43b767"/><path id="path193" d="M2747 2239c-214-123-421-250-650-385 207 226 428 450 634 633 223 109 440 202 668 310-218-167-434-343-652-558z" class="fil39" fill="#3eadd5"/><path id="path195" d="M4283 3052c-116-38-230-76-330-108 22 13 45 27 74 43 99 30 220 70 328 84-23-6-46-12-72-20z" class="fil41" fill="#a65f4d"/><path id="path197" d="M7289 688c-173 265-314 480-459 688 37-11 83-27 129-45 159-219 330-458 493-696-51 10-111 35-163 53z" class="fil42" fill="#ffcc2b"/><path id="path199" d="M7804 780c-9 7-14 18-14 30l3 86c0 10 4 18 11 25z" class="fil45" fill="#e55638"/><path id="path201" d="M7804 771c-3 2-6 5-9 7-8 8-12 19-12 31l3 86c0 12 6 23 14 30 1 1 3 2 4 3v-21c-2-4-4-8-4-13l-3-86c0-7 2-15 7-20v-18z" class="fil46" fill="#fefefe" fill-rule="nonzero"/><path id="path203" d="M7711 1885l4 96c1 23 20 40 42 40l47-2v-179l-54 2c-23 1-40 20-40 43z" class="fil47" fill="#d2d4d4"/><path id="path205" d="M7704 1885l3 96c0 13 6 25 15 33s21 13 34 13l47-2v-14l-47 2c-9 0-18-3-24-9s-11-14-11-24l-4-96c0-9 3-18 9-24s14-11 24-11l53-2v-14l-54 2c-13 0-25 6-33 15s-13 21-13 34z" class="fil46" fill="#fefefe" fill-rule="nonzero"/><path id="path207" d="M7698 2001l3 72c1 17 15 30 32 30l72-3v-134h-5l-72 3c-17 1-30 15-30 32z" class="fil45" fill="#e55638"/><path id="path209" d="M7691 2001l3 72c0 10 5 20 12 26 7 7 17 10 27 10l72-3v-14l-72 3c-7 0-13-2-17-6s-7-10-8-17l-3-72c0-7 2-13 6-17s10-7 17-8l72-3h4v-14h-5l-72 3c-10 0-20 5-26 12-7 7-10 17-10 27z" class="fil46" fill="#fefefe" fill-rule="nonzero"/><path id="path211" d="M7804 2164l-70 3c-17 1-30 15-30 32l3 72c1 17 15 30 32 30l65-2v-134z" class="fil48" fill="#9c416c"/><path id="path213" d="M7804 2104l-33 1c-13 0-23 11-22 24l2 54c0 13 11 23 24 22l30-1v-100z" class="fil47" fill="#d2d4d4"/><path id="path215" d="M7804 2097l-34 1c-8 0-16 4-21 10s-8 13-8 22l2 54c0 8 4 16 10 21s13 8 21 8l29-1v-14l-30 1c-4 0-8-2-11-4-3-3-5-7-5-11l-2-54c0-4 2-8 4-12 3-3 7-5 11-5l33-1v-14z" class="fil46" fill="#fefefe" fill-rule="nonzero"/><path id="path217" d="M7745 2160l-1-35c0-8-7-15-15-14l-35 1c-8 0-15 7-14 16l1 35c0 8 7 15 15 14l35-1c8 0 15-7 14-15z" class="fil47" fill="#d2d4d4"/><path id="path219" d="M7706 2331l4 107c1 25 22 45 47 44l48-2v-198l-55 2c-25 1-45 22-44 47z" class="fil49" fill="#f3cb30"/><path id="path221" d="M7699 2331l4 107c1 14 7 27 17 37 10 9 23 15 37 14l47-2v-14l-48 2c-10 0-20-4-28-10-7-7-12-16-12-26l-4-107c0-11 4-20 10-28 7-7 16-12 27-12l54-2v-14l-55 2c-15 1-27 7-37 17-9 10-15 23-14 38z" class="fil46" fill="#fefefe" fill-rule="nonzero"/><path id="path223" d="M7795 1787l1 33c0 5 3 10 8 12v-59c-6 2-9 8-9 14z" class="fil47" fill="#d2d4d4"/><path id="path225" d="M7788 1787l1 33c0 6 3 11 7 15 2 2 5 4 8 5v-17c-1-1-1-2-1-3l-1-33c0-2 1-4 2-5v-15c-4 1-8 3-10 6-4 4-6 9-6 15z" class="fil46" fill="#fefefe" fill-rule="nonzero"/><path id="path227" d="M7781 2545l-1-42c0-10-9-18-19-17l-42 2c-10 0-18 9-17 19l1 42c0 10 9 18 19 17l42-1c10 0 18-9 17-19z" class="fil47" fill="#d2d4d4"/><path id="path229" d="M7712 1847l-1-31c0-7-6-13-14-13l-31 1c-7 0-13 6-13 14l1 31c0 7 6 13 14 13l31-1c7 0 13-6 13-14z" class="fil49" fill="#f3cb30"/><path id="path231" d="M7704 1816l1 31c0 2-1 3-2 4s-2 2-4 2l-30 1c-2 0-3-1-4-2s-2-3-2-4l-1-31c0-2 1-3 2-4s3-2 4-2l31-1c2 0 3 1 4 2s2 3 2 4zm15 30l-1-31c0-6-3-10-6-14-4-3-9-6-14-5l-31 1c-5 0-10 3-14 6-4 4-5 9-5 14l1 31c0 6 3 10 6 14 4 4 9 6 14 5l31-1c6 0 10-3 14-6 3-4 6-9 6-14z" class="fil46" fill="#fefefe" fill-rule="nonzero"/><path id="path233" d="M7798 2980l3 82c0 5 1 9 3 13v-116c-4 6-6 13-6 21z" class="fil47" fill="#d2d4d4"/><path id="path235" d="M7791 2981l3 82c0 10 4 19 10 26v-140l-2 2c-7 8-12 19-11 30z" class="fil46" fill="#fefefe" fill-rule="nonzero"/><path id="polygon237" class="fil22" fill="#3caee3" d="M7687 4359l27-3538h-2l-27 3538z"/><path id="polygon239" class="fil22" fill="#3caee3" d="M7793 4248l11-1538v-278l-13 1816z"/><path id="path241" d="M7757 1025l2 61c0 8 4 15 10 21 5 5 13 8 21 8h15v-7l-15 1c-6 0-12-2-16-6s-7-9-7-16l-2-61c0-6 2-12 6-16s9-7 15-7l19-1v-7l-19 1c-8 0-15 4-21 9-5 6-8 13-8 21z" class="fil46" fill="#fefefe" fill-rule="nonzero"/><path id="path243" d="M7792 1311l2 46c0 6 3 12 7 16l3 3v-9c-2-3-4-6-4-10l-2-46c0-4 1-9 4-12l1-1v-9c-2 1-4 3-6 5-4 4-6 10-6 17z" class="fil46" fill="#fefefe" fill-rule="nonzero"/><path id="path245" d="M7804 1202l-29 1c-11 0-19 9-19 20l2 46c0 11 9 19 20 19l26-1z" class="fil48" fill="#9c416c"/><path id="path247" d="M7804 1199l-29 1c-6 0-12 3-16 7s-6 10-6 16l2 46c0 6 3 12 7 16s10 6 16 6l26-1v-7l-26 1c-4 0-9-1-11-4-3-3-5-7-5-11l-2-46c0-4 1-8 4-11s7-5 11-5l29-1z" class="fil46" fill="#fefefe" fill-rule="nonzero"/><path id="path249" d="M7804 1121h-4c-8 0-14 7-14 15l1 34c0 8 7 14 15 14h2v-64z" class="fil22" fill="#3caee3"/><path id="path251" d="M7804 1118h-4c-5 0-10 2-13 6-3 3-5 8-5 13l1 34c0 5 2 9 6 13 3 3 8 5 13 5h2v-7h-2c-3 0-6-1-8-3s-3-5-4-8l-1-34c0-3 1-6 3-8s5-3 8-4h4z" class="fil46" fill="#fefefe" fill-rule="nonzero"/><path id="path253" d="M7782 1199l-1-22c0-5-5-9-10-9l-22 1c-5 0-9 5-9 10l1 22c0 5 5 9 10 9l22-1c5 0 9-5 9-10z" class="fil47" fill="#d2d4d4"/><path id="path255" d="M7777 1177l1 22c0 2-1 3-2 4s-3 2-4 2l-22 1c-2 0-3-1-4-2s-2-2-2-4l-1-22c0-2 1-3 2-4s3-2 4-2l22-1c2 0 3 1 4 2s2 3 2 4zm8 22l-1-22c0-4-2-7-4-9s-6-4-9-4l-22 1c-3 0-7 2-9 4s-4 6-4 9l1 22c0 4 2 7 4 9s6 4 9 3l22-1c3 0 7-2 9-4s4-6 3-9z" class="fil46" fill="#fefefe" fill-rule="nonzero"/><path id="path257" d="M7721 1105l1 22c0 5 5 9 10 9l22-1c5 0 9-5 9-10l-1-22c0-5-4-9-10-9l-22 1c-5 0-9 5-9 10z" class="fil45" fill="#e55638"/><path id="path259" d="M7726 1126l-1-22c0-2 1-3 2-4s2-2 4-2l22-1c2 0 3 1 4 2s2 2 2 4l1 22c0 2-1 3-2 4s-2 2-4 2l-22 1c-2 0-3-1-4-2s-2-2-2-4zm-8-22l1 22c0 4 2 7 4 9s6 4 9 3l22-1c4 0 7-2 9-4s4-6 3-9l-1-22c0-4-2-7-4-9s-6-4-9-3l-22 1c-4 0-7 2-9 4s-4 6-3 9z" class="fil46" fill="#fefefe" fill-rule="nonzero"/><path id="path261" d="M7716 1246l1 16c0 4 3 7 7 7l16-1c4 0 7-3 7-7l-1-16c0-4-3-7-7-7l-16 1c-4 0-7 3-7 7z" class="fil48" fill="#9c416c"/><path id="path263" d="M7720 1263l-1-17c0-1 0-2 1-3s2-1 3-1l16-1c1 0 2 0 3 1s1 2 1 2l1 16c0 1 0 2-1 3s-2 1-2 1l-17 1c-1 0-2 0-2-1-1-1-1-2-1-2zm-7-16l1 16c0 3 1 5 4 7 2 2 5 3 7 3l16-1c3 0 6-1 7-3 2-2 3-5 3-8l-1-16c0-3-1-6-3-7-2-2-5-3-8-3l-17 1c-3 0-5 1-7 3s-3 5-3 7z" class="fil46" fill="#fefefe" fill-rule="nonzero"/><path id="path265" d="M7735 1314l-1-16c0-4-3-7-7-7l-16 1c-4 0-7 3-7 7l1 16c0 4 4 7 7 7l16-1c4 0 7-3 7-7z" class="fil47" fill="#d2d4d4"/><path id="path267" d="M7731 1297l1 16c0 1 0 2-1 2-1 1-1 1-2 1l-16 1c-1 0-2 0-3-1s-1-1-1-2l-1-16c0-1 0-2 1-2 1-1 1-1 2-1l16-1c1 0 2 0 2 1 1 1 1 1 1 2zm8 16l-1-16c0-3-1-6-3-7-2-2-5-3-8-3l-16 1c-3 0-5 1-7 3s-3 5-3 7l1 16c0 3 2 6 3 7 2 2 5 3 7 3l16-1c3 0 5-1 7-3s3-5 3-8z" class="fil46" fill="#fefefe" fill-rule="nonzero"/><path id="path269" d="M7793 1371v-12c0-3-3-5-5-5h-12c-3 0-5 2-5 5v12c0 3 3 5 5 5h12c3 0 5-2 5-5z" class="fil47" fill="#d2d4d4"/><path id="path271" d="M7789 1359l1 12s0 1-1 1l-1 1h-13l-1-1v-13l1-1h13s0 1 1 1zm7 12l-1-12c0-2-1-5-3-6-1-1-4-2-6-2h-12c-2 0-5 1-6 3-2 2-2 4-2 6v12c0 2 1 5 3 6s4 2 6 2h12c2 0 5-1 6-3s2-4 2-6z" class="fil46" fill="#fefefe" fill-rule="nonzero"/><path id="path273" d="M7714 1289v-8c0-2-2-3-3-3h-8c-2 0-3 2-3 4v8c0 2 2 3 4 3h8c2 0 3-2 3-4z" class="fil47" fill="#d2d4d4"/><path id="path275" d="M7710 1282v8h-8v-8zm7 8v-8c0-2-1-4-2-5s-3-2-5-2h-8c-2 0-4 1-5 2s-2 3-2 5v8c0 2 1 4 2 5s3 2 5 2h8c2 0 4-1 5-2s2-3 2-5z" class="fil46" fill="#fefefe" fill-rule="nonzero"/><path id="path277" d="M7705 1328l1 24c0 6 5 10 11 10l24-1c6 0 10-5 10-11l-1-24c0-6-5-10-11-10l-24 1c-6 0-10 5-10 11z" class="fil49" fill="#f3cb30"/><path id="path279" d="M7709 1352l-1-24c0-2 1-4 2-5s3-2 5-2l24-1c2 0 4 1 5 2s2 3 2 5l1 24c0 2-1 4-2 5s-3 2-5 2l-24 1c-2 0-4-1-5-2s-2-3-2-5zm-8-24l1 24c0 4 2 7 4 10 3 2 6 4 10 4l24-1c4 0 7-2 10-5 2-3 4-6 4-10l-1-24c0-4-2-7-4-10-3-2-6-4-10-4l-24 1c-4 0-7 2-10 5-2 3-4 6-4 10z" class="fil46" fill="#fefefe" fill-rule="nonzero"/><path id="path281" d="M7725 1205v7c0 2 2 3 3 3h8c2 0 3-2 3-3v-8c0-2-2-3-3-3h-7c-2 0-3 2-3 3z" class="fil47" fill="#d2d4d4"/><path id="path283" d="M7729 1212v-7h7v7zm-7-7v8c0 2 1 3 2 5 1 1 3 2 5 2h7c2 0 3-1 5-2 1-1 2-3 2-5v-7c0-2-1-4-2-5s-3-2-5-2h-7c-2 0-4 1-5 2s-2 3-2 5z" class="fil46" fill="#fefefe" fill-rule="nonzero"/><path id="path285" d="M7742 1303v8c0 2 2 3 4 3h8c2 0 4-2 3-4v-8c0-2-2-4-4-3h-8c-2 0-3 2-3 4z" class="fil47" fill="#d2d4d4"/><path id="path287" d="M7745 1303zm0 8v-8h8v8zm-7-8v8c0 2 1 4 2 5s3 2 5 2h8c2 0 4-1 5-2s2-3 2-5v-8c0-2-1-4-2-5s-3-2-5-2h-8c-2 0-4 1-5 2s-2 3-2 5z" class="fil46" fill="#fefefe" fill-rule="nonzero"/><path id="path289" d="M7737 1373v-4c0-1-1-2-2-2h-4c-1 0-2 1-2 2v4c0 1 1 2 2 2h4c1 0 2-1 2-2z" class="fil47" fill="#d2d4d4"/><path id="path291" d="M7734 1371h-1zm7 2v-4c0-1-1-3-2-4s-2-1-4-1h-4c-1 0-3 1-4 2s-1 2-1 4v4c0 1 1 3 2 4s2 1 3 1h4c2 0 3-1 4-2s1-2 1-4z" class="fil46" fill="#fefefe" fill-rule="nonzero"/><path id="path293" d="M7722 1377v-10c0-2-2-4-4-4h-10c-2 0-4 2-4 4v10c0 2 2 4 4 4h10c2 0 4-2 4-4z" class="fil47" fill="#d2d4d4"/><path id="path295" d="M7718 1367v10h-10v-10h11zm7 9v-10c0-2-1-4-2-5s-3-2-6-2h-10c-2 0-4 1-5 2s-2 3-2 6v10c0 2 1 4 2 5 2 1 3 2 6 2h10c2 0 4-1 5-2s2-3 2-5z" class="fil46" fill="#fefefe" fill-rule="nonzero"/><path id="path297" d="M7706 1218v-7c0-2-1-3-3-3h-7c-2 0-3 2-3 3v7c0 2 1 3 3 3h7c2 0 3-2 3-3z" class="fil47" fill="#d2d4d4"/><path id="path299" d="M7702 1212v6h-6v-6zm7 6v-7c0-2-1-3-2-5-1-1-3-2-5-2h-7c-2 0-3 1-5 2-1 1-2 3-2 5v7c0 2 1 3 2 5 1 1 3 2 5 2h7c2 0 3-1 4-2s2-3 2-5z" class="fil46" fill="#fefefe" fill-rule="nonzero"/><path id="path301" d="M7778 1485l-1-12c0-3 2-5 5-5h12c3 0 5 2 5 5v12c0 3-2 5-5 5h-12c-3 0-5-2-5-5z" class="fil47" fill="#d2d4d4"/><path id="path303" d="M7774 1472l1 12c0 2 1 5 3 6 2 2 4 3 6 2h12c2 0 5-1 6-3s2-4 2-6l-1-12c0-2-1-5-3-6-2-2-4-2-6-2h-12c-2 0-4 1-6 3-1 2-2 4-2 6zm7 12v-13l1-1h12c1 0 1 0 1 1l1 1 1 12s0 1-1 1l-1 1h-13l-1-1z" class="fil46" fill="#fefefe" fill-rule="nonzero"/><path id="path305" d="M7740 1155v-6c0-1 1-3 2-3h6c1 0 3 1 3 2v6c0 1-1 3-2 3h-6c-1 0-3-1-3-2z" class="fil47" fill="#d2d4d4"/><path id="path307" d="M7736 1149v6c0 2 1 3 2 4s3 2 4 2h6c2 0 3-1 4-2s2-3 2-4v-6c0-2-1-3-2-4s-3-2-4-2h-6c-2 0-3 1-4 2s-2 3-2 4zm7 5v-4h4v4z" class="fil46" fill="#fefefe" fill-rule="nonzero"/><path id="path309" d="M0 2827c224-30 434-43 628-35 385 13 732 79 1059 175 333 97 648 226 959 361 373 148 727 331 1088 459 370 131 744 202 1140 116 426-91 834-388 1220-744 368-339 713-727 1054-1047 238-224 457-367 658-450v-13c-199 84-416 227-651 450-341 322-686 713-1056 1055-388 359-798 659-1226 753-397 87-774 21-1146-107-365-124-722-305-1094-456-317-126-634-252-969-345-330-92-678-155-1066-162-185-3-384 10-596 40v-49z" class="fil28" fill="#f58634"/><path id="path311" d="M7804 4060c-86-62-171-124-254-186-342-238-642-488-942-679-294-187-593-323-948-348-394-27-869 106-1402 307-564 212-1210 506-1874 763-38 15-75 29-112 43l-1 6 93-36c669-260 1319-557 1887-772 536-203 1015-338 1411-312 357 23 660 156 956 341 302 189 605 436 947 675 78 55 158 111 239 167v32z" class="fil22" fill="#3caee3"/><path id="path313" d="M2341 4806c666-247 1407-700 2073-1142 465-360 917-748 1348-1091 412-326 808-614 1194-806 324-143 597-198 849-217v-19c-247 21-516 77-831 214-400 200-807 494-1225 825-440 347-901 741-1375 1105-680 447-1409 895-2062 1130h29z" class="fil31" fill="#e92e91"/><path id="path315" d="M4373 2727c0-20-1-40-1-60 0-14 14-29 30-34 23-7 45-13 70-21 15-5 30 3 30 16 0 20 1 40 1 59 0 15-14 30-30 35l-69 21c-16 5-29-3-30-16z" class="fil22" fill="#3caee3"/><path id="path317" d="M2285 4806c2-9 7-20 16-29 23-26 47-52 72-79 17-18 39-25 51-16 18 15 36 27 54 40 13 10 9 32-9 52l-29 32z" class="fil22" fill="#3caee3"/><path id="path319" d="M7095 2222c2-16 3-32 6-47 2-11-8-20-19-20-18 1-35 1-52 2-12 0-24 10-25 21-2 16-5 32-7 48-1 11 7 19 20 19 17 0 35-1 52-2 13-1 24-9 25-21z" class="fil47" fill="#d2d4d4"/><path id="path321" d="M4999 3943c-10-21-21-41-30-62-6-14 3-36 20-48 23-15 46-32 71-48 18-12 37-9 44 5 10 20 20 41 30 62 7 14-1 35-18 47-24 17-49 33-73 49-17 12-36 9-43-5z" class="fil49" fill="#f3cb30"/><path id="path323" d="M3472 2434c-5-10-9-20-14-31-3-7-13-8-24-3-15 9-30 17-45 26-10 6-16 17-13 24 5 10 8 21 13 32 3 8 14 8 25 2 15-9 30-18 45-26 10-6 16-17 13-24z" class="fil22" fill="#3caee3"/><path id="path325" d="M1896 3172c0-20-2-40-1-60 0-14 14-29 30-34 22-7 45-13 70-21 15-5 30 3 30 16 0 20 1 40 1 59 0 15-14 30-30 35l-69 21c-17 5-29-3-30-17z" class="fil22" fill="#3caee3"/></svg>