<?xml version="1.0" encoding="UTF-8"?>
<!DOCTYPE svg PUBLIC "-//W3C//DTD SVG 1.1//EN" "http://www.w3.org/Graphics/SVG/1.1/DTD/svg11.dtd">
<!-- Creator: CorelDRAW X6 -->
<svg xmlns="http://www.w3.org/2000/svg" xml:space="preserve" width="7.79166in" height="4.80555in" version="1.1" style="shape-rendering:geometricPrecision; text-rendering:geometricPrecision; image-rendering:optimizeQuality; fill-rule:evenodd; clip-rule:evenodd"
viewBox="0 0 7792 4806"
 xmlns:xlink="http://www.w3.org/1999/xlink">
 <defs>
  <style type="text/css">
   <![CDATA[
    .fil38 {fill:#219BA0}
    .fil32 {fill:#282828}
    .fil26 {fill:#2897A6}
    .fil22 {fill:#3CAEE3}
    .fil39 {fill:#3EADD5}
    .fil34 {fill:#3F5BA7}
    .fil44 {fill:#42B769}
    .fil36 {fill:#43B767}
    .fil37 {fill:#83C456}
    .fil24 {fill:#94D9F8}
    .fil0 {fill:#96989B}
    .fil1 {fill:#9A9C9F}
    .fil48 {fill:#9C416C}
    .fil25 {fill:#9DCC56}
    .fil2 {fill:#9FA2A6}
    .fil3 {fill:#A4A6A8}
    .fil41 {fill:#A65F4D}
    .fil4 {fill:#A8AAAD}
    .fil40 {fill:#A8CF46}
    .fil5 {fill:#ADAFB2}
    .fil6 {fill:#B1B3B6}
    .fil7 {fill:#B5B8BB}
    .fil8 {fill:#BCBDC0}
    .fil30 {fill:#BFC0C1}
    .fil9 {fill:#C0C2C4}
    .fil10 {fill:#C5C5C7}
    .fil27 {fill:#C8C5E2}
    .fil11 {fill:#C9CACC}
    .fil12 {fill:#CED1D1}
    .fil47 {fill:#D2D4D4}
    .fil13 {fill:#D4D7D6}
    .fil14 {fill:#D9DADB}
    .fil15 {fill:#DBDDDE}
    .fil16 {fill:#E2E3E4}
    .fil45 {fill:#E55638}
    .fil17 {fill:#E8E7E8}
    .fil31 {fill:#E92E91}
    .fil33 {fill:#EE3539}
    .fil18 {fill:#EEEEEE}
    .fil19 {fill:#F2F3F2}
    .fil49 {fill:#F3CB30}
    .fil28 {fill:#F58634}
    .fil23 {fill:#F6AFCE}
    .fil20 {fill:#F7F5F5}
    .fil29 {fill:#FAAB54}
    .fil43 {fill:#FAEE35}
    .fil35 {fill:#FBDD23}
    .fil21 {fill:#FEFEFE}
    .fil42 {fill:#FFCC2B}
    .fil46 {fill:#FEFEFE;fill-rule:nonzero}
   ]]>
  </style>
 </defs>
 <g id="Layer_x0020_1">
  <metadata id="CorelCorpID_0Corel-Layer"/>
  <path class="fil0" d="M5128 3960c956,-530 1851,-1124 2676,-1104l0 -1362c-837,-57 -1744,677 -2713,1330 -1015,684 -2071,1453 -3248,1763 -575,151 -1181,149 -1815,8 54,124 177,211 320,211l3207 0c541,-262 1062,-563 1573,-846z"/>
  <path class="fil1" d="M5133 3917c954,-529 1848,-1121 2672,-1104l0 -1362c-836,-54 -1741,679 -2708,1331 -1015,684 -2071,1453 -3248,1763 -582,153 -1195,149 -1837,3 40,148 176,258 336,258l3122 0c573,-272 1123,-590 1662,-889z"/>
  <path class="fil2" d="M5138 3874c952,-528 1845,-1119 2667,-1105l0 -1362c-835,-51 -1738,680 -2703,1331 -1015,684 -2071,1453 -3248,1763 -586,154 -1204,149 -1851,0 22,171 169,305 346,305l3035 0c606,-281 1186,-617 1754,-932z"/>
  <path class="fil3" d="M5142 3831c950,-527 1841,-1117 2662,-1105l0 -1362c-833,-48 -1735,682 -2698,1331 -1015,684 -2071,1453 -3248,1763 -588,155 -1209,149 -1858,-2l0 1c0,192 157,348 348,348l2946 0c640,-289 1251,-644 1848,-975z"/>
  <path class="fil4" d="M5147 3788c948,-526 1838,-1115 2657,-1105l0 -1363c-832,-45 -1732,683 -2694,1332 -1015,684 -2071,1453 -3248,1763 -590,155 -1212,149 -1863,-3l0 45c0,192 157,348 348,348l2855 0c676,-297 1318,-670 1944,-1018z"/>
  <path class="fil5" d="M5152 3745c946,-525 1834,-1112 2653,-1105l0 -1363c-831,-42 -1729,685 -2689,1332 -1015,684 -2071,1453 -3248,1763 -591,155 -1215,149 -1868,-4l0 89c0,192 157,348 348,348l2760 0c712,-303 1386,-696 2044,-1061z"/>
  <path class="fil6" d="M5156 3702c945,-524 1831,-1110 2648,-1105l0 -1363c-829,-39 -1726,686 -2684,1332 -1015,684 -2071,1453 -3248,1763 -592,156 -1218,149 -1872,-5l0 133c0,192 157,348 348,348l2662 0c750,-308 1458,-722 2146,-1104z"/>
  <path class="fil7" d="M5161 3659c943,-523 1828,-1108 2643,-1105l0 -1363c-828,-36 -1723,688 -2679,1332 -1015,684 -2071,1453 -3248,1763 -594,156 -1221,148 -1877,-6l0 177c0,192 157,348 348,348l2560 0c790,-312 1532,-747 2253,-1147z"/>
  <path class="fil8" d="M5166 3616c941,-522 1824,-1105 2638,-1105l0 -1363c-827,-33 -1720,689 -2675,1332 -1015,684 -2071,1453 -3248,1763 -595,156 -1224,148 -1882,-7l0 221c0,192 157,348 348,348l2454 0c832,-314 1609,-771 2364,-1190z"/>
  <path class="fil9" d="M5171 3573c939,-521 1821,-1103 2634,-1105l0 -1364c-826,-30 -1718,691 -2670,1332 -1015,684 -2071,1453 -3248,1763 -597,157 -1227,148 -1887,-9l0 266c0,192 157,348 348,348l2342 0c876,-315 1691,-795 2481,-1233z"/>
  <path class="fil10" d="M5176 3530c937,-520 1817,-1101 2629,-1105l0 -1364c-824,-27 -1715,692 -2665,1333 -1015,684 -2071,1453 -3248,1763 -598,157 -1230,148 -1891,-10l0 310c0,192 157,348 348,348l2224 0c923,-313 1777,-817 2604,-1275z"/>
  <path class="fil11" d="M5180 3487c936,-519 1814,-1099 2624,-1105l0 -1364c-823,-24 -1712,693 -2660,1333 -1015,684 -2071,1453 -3248,1763 -600,158 -1233,148 -1896,-11l0 354c0,192 157,348 348,348l2097 0c973,-308 1869,-838 2735,-1318z"/>
  <path class="fil12" d="M5185 3444c934,-518 1810,-1097 2619,-1105l0 -1364c-822,-21 -1709,695 -2656,1333 -1015,684 -2071,1453 -3248,1763 -601,158 -1236,148 -1901,-12l0 398c0,192 157,348 348,348l1961 0c1028,-300 1968,-858 2876,-1361z"/>
  <path class="fil13" d="M5190 3401c932,-517 1807,-1094 2615,-1105l0 -1364c-820,-18 -1706,696 -2651,1333 -1015,684 -2071,1453 -3248,1763 -603,158 -1239,148 -1906,-13l0 442c0,192 157,348 348,348l1811 0c1089,-287 2078,-876 3031,-1404z"/>
  <path class="fil14" d="M5195 3358c930,-516 1804,-1092 2610,-1104l0 -1364c-819,-16 -1703,697 -2646,1333 -1015,684 -2071,1453 -3248,1763 -604,159 -1242,148 -1910,-14l0 486c0,192 157,348 348,348l1641 0c1157,-267 2201,-891 3205,-1447z"/>
  <path class="fil15" d="M5199 3315c928,-515 1800,-1090 2605,-1105l0 -1365c-817,-13 -1700,699 -2642,1333 -1015,684 -2071,1453 -3248,1763 -605,159 -1245,148 -1915,-15l0 530c0,192 157,348 348,348l1438 0c52,-9 104,-20 155,-31 1179,-260 2239,-895 3258,-1459z"/>
  <path class="fil16" d="M5204 3272c927,-514 1797,-1087 2601,-1104l0 -1365c-816,-10 -1697,700 -2637,1333 -1015,684 -2071,1453 -3248,1763 -607,160 -1248,148 -1920,-16l0 574c0,126 68,237 169,298 125,21 250,38 373,50l948 0c154,-16 306,-41 457,-74 1179,-260 2239,-895 3257,-1459z"/>
  <path class="fil17" d="M5209 3229c925,-513 1793,-1085 2596,-1104l0 -1365c-815,-7 -1694,701 -2632,1333 -1015,684 -2071,1453 -3248,1763 -608,160 -1251,148 -1925,-18l0 618c0,94 38,179 98,242 647,118 1265,119 1853,-11 1179,-260 2239,-895 3257,-1459z"/>
  <path class="fil18" d="M5213 3186c923,-512 1790,-1083 2591,-1104l0 -1365c-814,-4 -1691,702 -2627,1333 -1015,684 -2071,1453 -3248,1763 -610,160 -1254,148 -1929,-19l0 663c0,70 21,136 57,190 663,127 1297,131 1899,-2 1179,-260 2239,-895 3257,-1459z"/>
  <path class="fil19" d="M5218 3143c921,-511 1786,-1081 2586,-1104l0 -1365c-812,-2 -1688,704 -2623,1333 -1015,684 -2071,1453 -3248,1763 -611,161 -1257,148 -1934,-20l0 707c0,50 11,98 30,141 675,133 1320,139 1931,4 1179,-260 2239,-895 3257,-1459z"/>
  <path class="fil20" d="M5223 3100c919,-510 1783,-1078 2581,-1104l0 -1365c-811,1 -1685,705 -2618,1333 -1015,684 -2071,1453 -3248,1763 -612,161 -1260,148 -1939,-21l0 751c0,33 5,64 13,94 683,137 1335,145 1952,8 1179,-260 2239,-895 3258,-1459z"/>
  <path class="fil21" d="M5228 3057c917,-509 1780,-1076 2577,-1104l0 -1366c-810,4 -1682,706 -2613,1333 -1015,684 -2071,1453 -3248,1763 -614,161 -1263,148 -1944,-22l0 795c0,16 1,32 3,48 688,140 1345,149 1967,11 1179,-260 2239,-895 3257,-1459z"/>
  <path class="fil21" d="M5190 4294c932,-517 1807,-1094 2614,-1105l0 -1364c-820,-18 -1706,696 -2651,1333 -906,611 -1845,1289 -2873,1648l1985 0c313,-169 621,-344 925,-512z"/>
  <path class="fil22" d="M7689 3295c39,27 78,55 115,82l0 131c-43,17 -86,32 -134,43 -72,-56 -163,-114 -253,-176 95,-17 187,-44 272,-79z"/>
  <path class="fil23" d="M5039 2727c142,-24 277,-61 408,-108 -120,59 -247,108 -382,152 -153,29 -301,35 -461,31 148,-19 291,-40 435,-75z"/>
  <path class="fil24" d="M7025 3254c90,61 184,122 268,181 -92,-1 -190,-10 -285,-23 -96,-65 -196,-130 -291,-191 106,18 205,27 308,33z"/>
  <path class="fil25" d="M7348 3473c89,65 170,125 253,186 -91,2 -180,-1 -274,-11 -94,-69 -178,-134 -275,-202 103,18 202,27 295,27z"/>
  <path class="fil24" d="M7628 3684c61,44 120,86 176,127l0 51c-60,5 -121,8 -187,3 -79,-61 -164,-127 -249,-191 90,10 177,11 260,9z"/>
  <path class="fil26" d="M7696 3182c-124,-95 -285,-184 -436,-271 -27,-15 -54,-32 -66,-46 136,82 305,172 441,263 11,21 51,40 61,54z"/>
  <path class="fil22" d="M5541 2729c123,-17 240,-27 354,-31 -116,28 -251,60 -388,85 -115,24 -234,41 -367,84 133,-56 271,-95 402,-138z"/>
  <path class="fil27" d="M5956 2696c116,10 221,18 331,40 -118,19 -235,38 -354,49 -108,-8 -237,-13 -363,-4 129,-30 270,-54 385,-85z"/>
  <path class="fil28" d="M6343 2748c101,25 208,58 309,96 -105,17 -221,26 -337,32 -110,-36 -218,-59 -329,-83 124,-9 232,-27 358,-45z"/>
  <path class="fil29" d="M6707 2862c103,44 199,90 302,140 -103,18 -212,27 -317,30 -120,-52 -222,-99 -330,-138 117,-7 233,-14 344,-33z"/>
  <path class="fil30" d="M7052 3026c90,53 178,107 261,159 -85,22 -187,33 -285,39 -87,-55 -184,-111 -292,-169 109,-1 213,-11 315,-29z"/>
  <path class="fil22" d="M5120 2774c142,-40 277,-71 398,-107 -129,55 -258,96 -392,151 -133,30 -277,61 -424,90 143,-50 286,-93 419,-134z"/>
  <path class="fil31" d="M5573 2656c124,-35 235,-53 353,-78 -116,53 -240,94 -362,138 -120,22 -244,51 -375,85 131,-49 260,-100 384,-146z"/>
  <path class="fil32" d="M5979 2573c118,-11 233,-17 337,-12 -107,44 -219,85 -343,118 -112,5 -235,11 -349,30 122,-44 242,-86 354,-135z"/>
  <path class="fil24" d="M6368 2562c106,13 210,28 309,51 -100,46 -207,80 -315,111 -111,-21 -216,-37 -334,-43 121,-35 235,-73 339,-119z"/>
  <path class="fil22" d="M6724 2628c106,28 205,60 298,99 -99,43 -193,80 -293,107 -108,-36 -213,-69 -319,-100 115,-27 215,-64 314,-106z"/>
  <path class="fil31" d="M7074 2746c93,43 186,88 272,134 -87,45 -180,85 -275,113 -96,-49 -198,-96 -296,-139 100,-27 195,-64 299,-108z"/>
  <path class="fil33" d="M7385 2909c82,52 162,101 242,155 -77,47 -170,88 -264,117 -80,-55 -166,-108 -255,-162 92,-28 177,-64 277,-110z"/>
  <path class="fil34" d="M5967 2443c117,-34 232,-62 337,-80 -104,73 -204,133 -324,194 -112,18 -232,44 -350,74 118,-59 228,-118 338,-189z"/>
  <path class="fil22" d="M6351 2358c112,-9 211,-11 311,-6 -91,67 -191,131 -291,184 -101,-3 -218,0 -336,15 113,-61 224,-124 316,-193z"/>
  <path class="fil35" d="M6710 2356c101,12 195,30 288,56 -85,68 -185,130 -280,184 -92,-26 -197,-40 -299,-55 102,-52 195,-115 290,-185z"/>
  <path class="fil36" d="M7048 2424c96,30 192,61 283,101 -86,68 -167,128 -265,184 -95,-39 -194,-72 -293,-102 93,-55 185,-114 275,-183z"/>
  <path class="fil34" d="M7373 2543c86,41 173,84 249,134 -76,68 -154,131 -231,185 -93,-47 -179,-93 -275,-135 95,-55 176,-117 256,-185z"/>
  <path class="fil37" d="M7804 3179c-65,-48 -141,-97 -213,-144 73,-47 143,-103 213,-165l0 309z"/>
  <path class="fil23" d="M6656 2067c100,-10 196,-11 292,-6 -80,94 -162,179 -251,260 -97,-7 -203,-1 -305,5 96,-80 180,-165 263,-258z"/>
  <path class="fil38" d="M6998 2063c94,15 181,37 275,61 -76,91 -150,172 -239,253 -92,-24 -193,-39 -292,-53 93,-82 177,-168 256,-262z"/>
  <path class="fil38" d="M7317 2138c92,30 181,63 265,103 -74,93 -143,172 -218,249 -87,-38 -185,-71 -285,-99 90,-80 166,-164 238,-254z"/>
  <path class="fil36" d="M7624 2262c59,32 119,66 180,98l0 110c-49,61 -96,119 -146,173 -88,-44 -167,-90 -253,-133 75,-77 146,-159 219,-248z"/>
  <path class="fil37" d="M6987 1653c96,-2 187,3 276,15 -58,109 -127,216 -205,322 -88,-14 -186,-14 -283,-12 81,-108 147,-212 211,-325z"/>
  <path class="fil36" d="M7310 1673c90,23 181,44 269,76 -63,107 -128,212 -198,313 -89,-30 -185,-49 -276,-69 70,-100 141,-206 205,-319z"/>
  <path class="fil36" d="M7520 1241c84,26 164,60 251,94 -55,119 -107,231 -161,343 -88,-30 -177,-52 -269,-75 61,-115 121,-239 180,-362z"/>
  <path class="fil39" d="M6147 2026c100,-64 199,-118 307,-180 -78,117 -166,229 -250,329 -110,49 -216,104 -327,159 95,-90 183,-197 270,-307z"/>
  <path class="fil40" d="M7738 25c-9,5 -19,10 -28,15l6 -43c8,9 15,18 22,27z"/>
  <path class="fil41" d="M5436 2541c57,-31 113,-60 161,-93 -9,12 -19,23 -31,38 -49,25 -108,56 -162,85 11,-10 21,-20 33,-30z"/>
  <path class="fil36" d="M1469 929c85,35 165,79 245,122 9,37 11,73 18,109 -74,-39 -163,-82 -242,-114 -5,-38 -17,-78 -22,-117z"/>
  <path class="fil42" d="M3544 2318c128,66 231,115 337,164 -20,8 -45,16 -70,25 -113,-46 -236,-99 -354,-154 26,-14 59,-26 87,-36z"/>
  <path class="fil22" d="M740 4218c-106,91 -211,182 -302,269 164,82 315,154 484,205 94,-92 223,-185 346,-282 -178,-49 -358,-113 -528,-191z"/>
  <path class="fil43" d="M118 4718c59,-57 116,-114 176,-173 -97,-57 -195,-121 -294,-188l0 100c0,103 46,197 118,261z"/>
  <path class="fil23" d="M5057 3084c-252,66 -504,88 -752,94 236,19 480,31 733,3 271,-99 521,-219 783,-399 -256,126 -506,217 -765,302z"/>
  <path class="fil24" d="M1895 4262c-125,93 -256,188 -371,282 163,14 331,13 491,2 133,-107 272,-208 406,-301 -177,17 -347,19 -526,17z"/>
  <path class="fil25" d="M1449 4606c-82,68 -157,134 -232,199l506 0c76,-67 151,-133 234,-201 -172,15 -342,16 -508,2z"/>
  <path class="fil44" d="M121 4721c42,-80 86,-160 133,-247 -6,-34 14,-72 20,-110 -58,115 -119,228 -172,338 6,6 13,13 20,19z"/>
  <path class="fil26" d="M663 4008c165,-152 398,-289 618,-416 39,-22 77,-46 90,-71 -195,122 -443,254 -630,400 -8,36 -67,63 -78,87z"/>
  <path class="fil22" d="M4204 3371c-223,5 -432,3 -632,14 217,30 470,53 724,72 209,-24 425,-26 673,-61 -256,11 -515,-7 -765,-25z"/>
  <path class="fil27" d="M3464 3391c-199,6 -378,32 -561,50 219,47 435,68 650,92 183,-36 407,-50 629,-75 -240,-6 -500,-40 -718,-67z"/>
  <path class="fil28" d="M2811 3457c-164,40 -335,77 -492,130 196,43 407,78 615,89 174,-44 350,-94 533,-127 -223,-21 -424,-46 -656,-92z"/>
  <path class="fil29" d="M2233 3612c-157,58 -301,125 -456,197 194,50 391,81 579,107 181,-81 337,-143 504,-208 -209,-16 -420,-49 -627,-95z"/>
  <path class="fil30" d="M1716 3844c-130,79 -254,162 -371,243 164,55 350,94 527,120 123,-86 263,-172 420,-253 -194,-22 -384,-57 -577,-110z"/>
  <path class="fil22" d="M4948 3217c-261,50 -511,54 -737,50 251,28 497,52 753,31 242,-41 500,-120 760,-230 -265,68 -528,122 -776,148z"/>
  <path class="fil31" d="M4108 3257c-232,-10 -438,-40 -656,-57 231,62 471,124 707,151 220,5 448,-9 690,-30 -251,-5 -499,-16 -740,-64z"/>
  <path class="fil32" d="M3354 3184c-214,-22 -421,-40 -602,-43 213,85 435,159 671,220 198,-6 416,-3 625,-6 -237,-39 -468,-96 -694,-170z"/>
  <path class="fil24" d="M2662 3139c-181,1 -356,12 -520,32 204,101 413,178 622,245 184,-27 360,-42 563,-59 -231,-51 -456,-133 -665,-218z"/>
  <path class="fil22" d="M2068 3187c-174,31 -330,68 -473,119 201,100 389,183 582,250 172,-45 338,-89 508,-123 -220,-70 -418,-146 -618,-245z"/>
  <path class="fil31" d="M1514 3330c-141,58 -279,121 -407,186 181,102 369,193 555,263 141,-70 297,-134 445,-197 -193,-66 -384,-152 -593,-252z"/>
  <path class="fil33" d="M1055 3560c-115,81 -230,156 -339,242 163,101 352,191 536,264 110,-84 232,-165 360,-245 -180,-68 -351,-153 -557,-261z"/>
  <path class="fil34" d="M3303 2967c-224,-57 -444,-122 -640,-163 225,134 437,252 682,353 207,28 431,56 653,80 -238,-69 -463,-153 -695,-270z"/>
  <path class="fil22" d="M2576 2789c-205,-45 -382,-64 -557,-82 202,145 414,274 622,390 176,0 386,26 601,46 -232,-98 -466,-227 -666,-354z"/>
  <path class="fil35" d="M1936 2701c-173,2 -330,10 -481,33 191,144 404,281 604,398 149,-24 326,-35 499,-40 -212,-114 -412,-241 -622,-392z"/>
  <path class="fil36" d="M1373 2744c-153,32 -307,68 -445,117 193,147 372,277 578,401 147,-50 304,-86 462,-121 -196,-116 -394,-249 -595,-397z"/>
  <path class="fil34" d="M865 2888c-128,59 -258,121 -366,200 176,139 351,272 518,384 138,-64 264,-131 411,-184 -201,-124 -381,-256 -564,-399z"/>
  <path class="fil37" d="M244 3380c-82,71 -161,142 -244,210l0 106c143,113 294,219 442,317 91,-87 209,-178 320,-261 -172,-108 -343,-233 -519,-373z"/>
  <path class="fil37" d="M0 4276c20,13 40,27 60,40 91,-81 190,-176 291,-259 -111,-79 -235,-166 -351,-257l0 476z"/>
  <path class="fil23" d="M1864 2192c-184,-41 -356,-72 -525,-90 197,195 393,374 597,538 168,12 360,46 545,78 -217,-162 -414,-333 -617,-526z"/>
  <path class="fil38" d="M1253 2094c-159,2 -301,22 -455,41 189,188 368,356 573,529 150,-23 320,-25 490,-24 -214,-172 -412,-350 -608,-546z"/>
  <path class="fil38" d="M728 2151c-146,36 -285,77 -412,137 186,184 353,346 531,506 133,-51 288,-89 451,-116 -207,-169 -391,-346 -571,-528z"/>
  <path class="fil36" d="M254 2318c-84,49 -168,101 -254,154l0 153c144,139 278,271 416,395 130,-69 243,-138 373,-197 -180,-161 -353,-326 -534,-505z"/>
  <path class="fil22" d="M0 3443c47,-41 96,-83 147,-126 -49,-41 -98,-83 -147,-126l0 252z"/>
  <path class="fil37" d="M1033 1339c-173,-34 -332,-50 -484,-49 166,216 353,433 552,651 149,-1 324,25 498,57 -208,-221 -386,-432 -566,-659z"/>
  <path class="fil36" d="M469 1287c-146,20 -296,43 -434,86 175,211 351,418 535,620 141,-34 301,-48 451,-60 -184,-205 -371,-418 -551,-646z"/>
  <path class="fil36" d="M0 1221c120,-30 246,-51 375,-73 -124,-159 -250,-327 -375,-497l0 570z"/>
  <path class="fil39" d="M2747 2239c-214,-123 -421,-250 -650,-385 207,226 428,450 634,633 223,109 440,202 668,310 -218,-167 -434,-343 -652,-558z"/>
  <path class="fil41" d="M4283 3052c-116,-38 -230,-76 -330,-108 22,13 45,27 74,43 99,30 220,70 328,84 -23,-6 -46,-12 -72,-20z"/>
  <path class="fil42" d="M7289 688c-173,265 -314,480 -459,688 37,-11 83,-27 129,-45 159,-219 330,-458 493,-696 -51,10 -111,35 -163,53z"/>
  <path class="fil45" d="M7804 780c-9,7 -14,18 -14,30l3 86c0,10 4,18 11,25l0 -141z"/>
  <path class="fil46" d="M7804 771c-3,2 -6,5 -9,7 -8,8 -12,19 -12,31l0 0 3 86 0 0 0 0c0,12 6,23 14,30 1,1 3,2 4,3l0 -21c-2,-4 -4,-8 -4,-13l0 0 -3 -86 0 0c0,-7 2,-15 7,-20l0 -18z"/>
  <path class="fil47" d="M7711 1885l4 96c1,23 20,40 42,40l47 -2 0 -179 -54 2c-23,1 -40,20 -40,43z"/>
  <path class="fil46" d="M7704 1885l3 96c0,13 6,25 15,33 9,8 21,13 34,13l0 0 47 -2 0 -14 -47 2c-9,0 -18,-3 -24,-9 -6,-6 -11,-14 -11,-24l-4 -96c0,-9 3,-18 9,-24l0 0c6,-6 14,-11 24,-11l0 0 53 -2 0 -14 -54 2c-13,0 -25,6 -33,15l0 0c-8,9 -13,21 -13,34z"/>
  <path class="fil45" d="M7698 2001l3 72c1,17 15,30 32,30l72 -3 0 -134c-1,0 -3,0 -5,0l-72 3c-17,1 -30,15 -30,32z"/>
  <path class="fil46" d="M7691 2001l3 72c0,10 5,20 12,26 7,7 17,10 27,10l72 -3 0 -14 -72 3c-7,0 -13,-2 -17,-6 -4,-4 -7,-10 -8,-17l-3 -72c0,-7 2,-13 6,-17 4,-4 10,-7 17,-8l72 -3 0 0c2,0 3,0 4,0l0 -14c-1,0 -3,0 -5,0l0 0 -72 3c-10,0 -20,5 -26,12 -7,7 -10,17 -10,27z"/>
  <path class="fil48" d="M7804 2164l-70 3c-17,1 -30,15 -30,32l3 72c1,17 15,30 32,30l65 -2 0 -134z"/>
  <path class="fil47" d="M7804 2104l-33 1c-13,0 -23,11 -22,24l2 54c0,13 11,23 24,22l30 -1 0 -100z"/>
  <path class="fil46" d="M7804 2097l-34 1c-8,0 -16,4 -21,10l0 0c-5,6 -8,13 -8,22l2 54 0 0c0,8 4,16 10,21 6,5 13,8 21,8l0 0 29 -1 0 -14 -30 1 0 0 0 0c-4,0 -8,-2 -11,-4 -3,-3 -5,-7 -5,-11l0 0 -2 -54c0,-4 2,-8 4,-12l0 0c3,-3 7,-5 11,-5l0 0 33 -1 0 -14z"/>
  <path class="fil47" d="M7745 2160l-1 -35c0,-8 -7,-15 -15,-14l-35 1c-8,0 -15,7 -14,16l1 35c0,8 7,15 15,14l35 -1c8,0 15,-7 14,-15z"/>
  <path class="fil49" d="M7706 2331l4 107c1,25 22,45 47,44l48 -2 0 -198 -55 2c-25,1 -45,22 -44,47z"/>
  <path class="fil46" d="M7699 2331l4 107 0 0c1,14 7,27 17,37 10,9 23,15 37,14l0 0 47 -2 0 -14 -48 2 0 0c-10,0 -20,-4 -28,-10 -7,-7 -12,-16 -12,-26l0 0 -4 -107c0,-11 4,-20 10,-28 7,-7 16,-12 27,-12l54 -2 0 -14 -55 2c-15,1 -27,7 -37,17 -9,10 -15,23 -14,38z"/>
  <path class="fil47" d="M7795 1787l1 33c0,5 3,10 8,12l0 -59c-6,2 -9,8 -9,14z"/>
  <path class="fil46" d="M7788 1787l1 33c0,6 3,11 7,15 2,2 5,4 8,5l0 -17c-1,-1 -1,-2 -1,-3l-1 -33c0,-2 1,-4 2,-5l0 0 0 0 0 -15c-4,1 -8,3 -10,6l0 0c-4,4 -6,9 -6,15z"/>
  <path class="fil47" d="M7781 2545l-1 -42c0,-10 -9,-18 -19,-17l-42 2c-10,0 -18,9 -17,19l1 42c0,10 9,18 19,17l42 -1c10,0 18,-9 17,-19z"/>
  <path class="fil49" d="M7712 1847l-1 -31c0,-7 -6,-13 -14,-13l-31 1c-7,0 -13,6 -13,14l1 31c0,7 6,13 14,13l31 -1c7,0 13,-6 13,-14z"/>
  <path class="fil46" d="M7704 1816l1 31 0 0c0,2 -1,3 -2,4l0 0c-1,1 -2,2 -4,2l0 0 -30 1 0 0 0 0c-2,0 -3,-1 -4,-2l0 0c-1,-1 -2,-3 -2,-4l0 0 -1 -31c0,-2 1,-3 2,-4 1,-1 3,-2 4,-2l0 0 31 -1c2,0 3,1 4,2 1,1 2,3 2,4zm15 30l-1 -31c0,-6 -3,-10 -6,-14 -4,-3 -9,-6 -14,-5l0 0 -31 1c-5,0 -10,3 -14,6 -4,4 -5,9 -5,14l1 31 0 0c0,6 3,10 6,14l0 0c4,4 9,6 14,5l0 0 0 0 0 0 31 -1 0 0 0 0c6,0 10,-3 14,-6l0 0c3,-4 6,-9 6,-14l0 0 0 0 0 0z"/>
  <path class="fil47" d="M7798 2980l3 82c0,5 1,9 3,13l0 -116c-4,6 -6,13 -6,21z"/>
  <path class="fil46" d="M7791 2981l3 82c0,10 4,19 10,26l0 -140 -2 2c-7,8 -12,19 -11,30l0 0z"/>
  <polygon class="fil22" points="7712,821 7685,4359 7687,4359 7714,821 "/>
  <polygon class="fil22" points="7804,2432 7791,4248 7793,4248 7804,2710 "/>
  <path class="fil46" d="M7757 1025l2 61 0 0c0,8 4,15 10,21 5,5 13,8 21,8l0 0 15 0 0 -7 -15 1 0 0c-6,0 -12,-2 -16,-6 -4,-4 -7,-9 -7,-16l0 0 -2 -61 0 0c0,-6 2,-12 6,-16 4,-4 9,-7 15,-7l0 0 19 -1 0 -7 -19 1 0 0c-8,0 -15,4 -21,9 -5,6 -8,13 -8,21l0 0z"/>
  <path class="fil46" d="M7792 1311l2 46c0,6 3,12 7,16 1,1 2,2 3,3l0 -9c-2,-3 -4,-6 -4,-10l-2 -46c0,-4 1,-9 4,-12l1 -1 0 -9c-2,1 -4,3 -6,5 -4,4 -6,10 -6,17l0 0z"/>
  <path class="fil48" d="M7804 1202l-29 1c-11,0 -19,9 -19,20l2 46c0,11 9,19 20,19l26 -1 0 -85z"/>
  <path class="fil46" d="M7804 1199l-29 1c-6,0 -12,3 -16,7l0 0c-4,4 -6,10 -6,16l2 46c0,6 3,12 7,16l0 0c4,4 10,6 16,6l26 -1 0 -7 -26 1c-4,0 -9,-1 -11,-4l0 0c-3,-3 -5,-7 -5,-11l-2 -46c0,-4 1,-8 4,-11l0 0c3,-3 7,-5 11,-5l29 -1 0 -7z"/>
  <path class="fil22" d="M7804 1121l-4 0c-8,0 -14,7 -14,15l1 34c0,8 7,14 15,14l2 0 0 -64z"/>
  <path class="fil46" d="M7804 1118l-4 0c-5,0 -10,2 -13,6 -3,3 -5,8 -5,13l1 34c0,5 2,9 6,13 3,3 8,5 13,5l0 0 2 0 0 -7 -2 0c-3,0 -6,-1 -8,-3 -2,-2 -3,-5 -4,-8l-1 -34c0,-3 1,-6 3,-8 2,-2 5,-3 8,-4l0 0 4 0 0 -7z"/>
  <path class="fil47" d="M7782 1199l-1 -22c0,-5 -5,-9 -10,-9l-22 1c-5,0 -9,5 -9,10l1 22c0,5 5,9 10,9l22 -1c5,0 9,-5 9,-10z"/>
  <path class="fil46" d="M7777 1177l1 22c0,2 -1,3 -2,4 -1,1 -3,2 -4,2l-22 1 0 0c-2,0 -3,-1 -4,-2 -1,-1 -2,-2 -2,-4l0 0 -1 -22c0,-2 1,-3 2,-4 1,-1 3,-2 4,-2l0 0 22 -1c2,0 3,1 4,2l0 0c1,1 2,3 2,4zm8 22l-1 -22c0,-4 -2,-7 -4,-9l0 0c-2,-2 -6,-4 -9,-4l0 0 -22 1c-3,0 -7,2 -9,4 -2,2 -4,6 -4,9l0 0 1 22 0 0c0,4 2,7 4,9 2,2 6,4 9,3l0 0 22 -1c3,0 7,-2 9,-4 2,-2 4,-6 3,-9l0 0z"/>
  <path class="fil45" d="M7721 1105l1 22c0,5 5,9 10,9l22 -1c5,0 9,-5 9,-10l-1 -22c0,-5 -4,-9 -10,-9l-22 1c-5,0 -9,5 -9,10z"/>
  <path class="fil46" d="M7726 1126l-1 -22c0,-2 1,-3 2,-4 1,-1 2,-2 4,-2l22 -1c2,0 3,1 4,2l0 0c1,1 2,2 2,4l1 22c0,2 -1,3 -2,4 -1,1 -2,2 -4,2l-22 1c-2,0 -3,-1 -4,-2 -1,-1 -2,-2 -2,-4zm-8 -22l1 22c0,4 2,7 4,9 2,2 6,4 9,3l22 -1c4,0 7,-2 9,-4 2,-2 4,-6 3,-9l-1 -22c0,-4 -2,-7 -4,-9l0 0c-2,-2 -6,-4 -9,-3l-22 1c-4,0 -7,2 -9,4 -2,2 -4,6 -3,9l0 0z"/>
  <path class="fil48" d="M7716 1246l1 16c0,4 3,7 7,7l16 -1c4,0 7,-3 7,-7l-1 -16c0,-4 -3,-7 -7,-7l-16 1c-4,0 -7,3 -7,7z"/>
  <path class="fil46" d="M7720 1263l-1 -17c0,-1 0,-2 1,-3l0 0c1,-1 2,-1 3,-1l16 -1c1,0 2,0 3,1 1,1 1,2 1,2l1 16c0,1 0,2 -1,3 -1,1 -2,1 -2,1l-17 1c-1,0 -2,0 -2,-1l0 0c-1,-1 -1,-2 -1,-2zm-7 -16l1 16c0,3 1,5 4,7l0 0c2,2 5,3 7,3l16 -1c3,0 6,-1 7,-3 2,-2 3,-5 3,-8l-1 -16c0,-3 -1,-6 -3,-7 -2,-2 -5,-3 -8,-3l-17 1c-3,0 -5,1 -7,3l0 0c-2,2 -3,5 -3,7l0 0z"/>
  <path class="fil47" d="M7735 1314l-1 -16c0,-4 -3,-7 -7,-7l-16 1c-4,0 -7,3 -7,7l1 16c0,4 4,7 7,7l16 -1c4,0 7,-3 7,-7z"/>
  <path class="fil46" d="M7731 1297l1 16c0,1 0,2 -1,2l0 0c-1,1 -1,1 -2,1l0 0 -16 1 0 0c-1,0 -2,0 -3,-1l0 0c-1,-1 -1,-1 -1,-2l0 0 -1 -16c0,-1 0,-2 1,-2 1,-1 1,-1 2,-1l16 -1c1,0 2,0 2,1 1,1 1,1 1,2zm8 16l-1 -16c0,-3 -1,-6 -3,-7 -2,-2 -5,-3 -8,-3l-16 1c-3,0 -5,1 -7,3 -2,2 -3,5 -3,7l1 16 0 0c0,3 2,6 3,7l0 0c2,2 5,3 7,3l0 0 16 -1c3,0 5,-1 7,-3 2,-2 3,-5 3,-8l0 0z"/>
  <path class="fil47" d="M7793 1371l0 -12c0,-3 -3,-5 -5,-5l-12 0c-3,0 -5,2 -5,5l0 12c0,3 3,5 5,5l12 0c3,0 5,-2 5,-5z"/>
  <path class="fil46" d="M7789 1359l1 12 0 0c0,0 0,1 -1,1l0 0c0,0 -1,1 -1,1l0 0 -12 0c-1,0 -1,0 -1,0l0 0c0,0 -1,-1 -1,-1l0 0 0 -12c0,0 0,-1 0,-1l0 0c0,0 1,-1 1,-1l0 0 12 0 0 0c0,0 1,0 1,0 0,0 0,1 1,1l0 0zm7 12l-1 -12 0 0c0,-2 -1,-5 -3,-6 -1,-1 -4,-2 -6,-2l0 0 -12 0c-2,0 -5,1 -6,3l0 0c-2,2 -2,4 -2,6l0 12c0,2 1,5 3,6l0 0c2,1 4,2 6,2l12 0 0 0c2,0 5,-1 6,-3l0 0c1,-2 2,-4 2,-6l0 0z"/>
  <path class="fil47" d="M7714 1289l0 -8c0,-2 -2,-3 -3,-3l-8 0c-2,0 -3,2 -3,4l0 8c0,2 2,3 4,3l8 0c2,0 3,-2 3,-4z"/>
  <path class="fil46" d="M7710 1282l0 8 -8 0 0 -8 8 0zm7 8l0 -8c0,-2 -1,-4 -2,-5l0 0c-1,-1 -3,-2 -5,-2l0 0 -8 0c-2,0 -4,1 -5,2 -1,1 -2,3 -2,5l0 8 0 0c0,2 1,4 2,5 1,1 3,2 5,2l0 0 8 0c2,0 4,-1 5,-2 1,-1 2,-3 2,-5l0 0z"/>
  <path class="fil49" d="M7705 1328l1 24c0,6 5,10 11,10l24 -1c6,0 10,-5 10,-11l-1 -24c0,-6 -5,-10 -11,-10l-24 1c-6,0 -10,5 -10,11z"/>
  <path class="fil46" d="M7709 1352l-1 -24c0,-2 1,-4 2,-5l0 0c1,-1 3,-2 5,-2l24 -1c2,0 4,1 5,2l0 0c1,1 2,3 2,5l1 24c0,2 -1,4 -2,5l0 0c-1,1 -3,2 -5,2l0 0 -24 1c-2,0 -4,-1 -5,-2 -1,-1 -2,-3 -2,-5zm-8 -24l1 24c0,4 2,7 4,10 3,2 6,4 10,4l24 -1c4,0 7,-2 10,-5l0 0c2,-3 4,-6 4,-10l-1 -24c0,-4 -2,-7 -4,-10l0 0c-3,-2 -6,-4 -10,-4l-24 1c-4,0 -7,2 -10,5l0 0c-2,3 -4,6 -4,10l0 0z"/>
  <path class="fil47" d="M7725 1205l0 7c0,2 2,3 3,3l8 0c2,0 3,-2 3,-3l0 -8c0,-2 -2,-3 -3,-3l-7 0c-2,0 -3,2 -3,3z"/>
  <path class="fil46" d="M7729 1212l0 -7 7 0 0 7 -7 0zm-7 -7l0 8c0,2 1,3 2,5 1,1 3,2 5,2l7 0c2,0 3,-1 5,-2l0 0c1,-1 2,-3 2,-5l0 0 0 -7c0,-2 -1,-4 -2,-5 -1,-1 -3,-2 -5,-2l0 0 -7 0c-2,0 -4,1 -5,2 -1,1 -2,3 -2,5l0 0z"/>
  <path class="fil47" d="M7742 1303l0 8c0,2 2,3 4,3l8 0c2,0 4,-2 3,-4l0 -8c0,-2 -2,-4 -4,-3l-8 0c-2,0 -3,2 -3,4z"/>
  <path class="fil46" d="M7745 1303l0 0zm0 8l0 -8 8 0 0 8 -8 0 0 0zm-7 -8l0 8c0,2 1,4 2,5 1,1 3,2 5,2l8 0c2,0 4,-1 5,-2l0 0c1,-1 2,-3 2,-5l0 0 0 -8c0,-2 -1,-4 -2,-5 -1,-1 -3,-2 -5,-2l0 0 -8 0c-2,0 -4,1 -5,2l0 0c-1,1 -2,3 -2,5l0 0z"/>
  <path class="fil47" d="M7737 1373l0 -4c0,-1 -1,-2 -2,-2l-4 0c-1,0 -2,1 -2,2l0 4c0,1 1,2 2,2l4 0c1,0 2,-1 2,-2z"/>
  <path class="fil46" d="M7734 1371l0 0 -1 0 0 0 1 0zm7 2l0 -4 0 0c0,-1 -1,-3 -2,-4l0 0c-1,-1 -2,-1 -4,-1l0 0 0 0 -4 0 0 0c-1,0 -3,1 -4,2l0 0c-1,1 -1,2 -1,4l0 0 0 4 0 0c0,1 1,3 2,4l0 0c1,1 2,1 3,1l0 0 0 0 4 0 0 0c2,0 3,-1 4,-2l0 0c1,-1 1,-2 1,-4l0 0z"/>
  <path class="fil47" d="M7722 1377l0 -10c0,-2 -2,-4 -4,-4l-10 0c-2,0 -4,2 -4,4l0 10c0,2 2,4 4,4l10 0c2,0 4,-2 4,-4z"/>
  <path class="fil46" d="M7718 1367l0 10c0,0 0,0 0,0l0 0c0,0 0,0 0,0l0 0 -10 0c0,0 0,0 0,0 0,0 0,0 0,0l0 -10c0,0 0,0 0,0 0,0 0,0 0,0l10 0c0,0 0,0 1,0l0 0c0,0 0,0 0,0zm7 9l0 -10c0,-2 -1,-4 -2,-5 -1,-1 -3,-2 -6,-2l0 0 -10 0c-2,0 -4,1 -5,2 -1,1 -2,3 -2,6l0 0 0 10c0,2 1,4 2,5l0 0c2,1 3,2 6,2l0 0 10 0c2,0 4,-1 5,-2 1,-1 2,-3 2,-5l0 0z"/>
  <path class="fil47" d="M7706 1218l0 -7c0,-2 -1,-3 -3,-3l-7 0c-2,0 -3,2 -3,3l0 7c0,2 1,3 3,3l7 0c2,0 3,-2 3,-3z"/>
  <path class="fil46" d="M7702 1212l0 6 -6 0 0 -6 6 0zm7 6l0 -7c0,-2 -1,-3 -2,-5l0 0c-1,-1 -3,-2 -5,-2l-7 0c-2,0 -3,1 -5,2 -1,1 -2,3 -2,5l0 7c0,2 1,3 2,5l0 0c1,1 3,2 5,2l7 0c2,0 3,-1 4,-2l0 0c1,-1 2,-3 2,-5l0 0z"/>
  <path class="fil47" d="M7778 1485l-1 -12c0,-3 2,-5 5,-5l12 0c3,0 5,2 5,5l0 12c0,3 -2,5 -5,5l-12 0c-3,0 -5,-2 -5,-5z"/>
  <path class="fil46" d="M7774 1472l1 12c0,2 1,5 3,6l0 0c2,2 4,3 6,2l0 0 12 0c2,0 5,-1 6,-3 1,-2 2,-4 2,-6l0 0 -1 -12c0,-2 -1,-5 -3,-6 -2,-2 -4,-2 -6,-2l-12 0c-2,0 -4,1 -6,3l0 0c-1,2 -2,4 -2,6l0 0zm7 12l0 -12c0,0 0,-1 0,-1l0 0c0,0 1,-1 1,-1l12 0c1,0 1,0 1,1l0 0c0,0 1,1 1,1l0 0 1 12c0,0 0,1 -1,1 0,0 -1,1 -1,1l-12 0c-1,0 -1,0 -1,0l0 0c0,0 -1,-1 -1,-1l0 0z"/>
  <path class="fil47" d="M7740 1155l0 -6c0,-1 1,-3 2,-3l6 0c1,0 3,1 3,2l0 6c0,1 -1,3 -2,3l-6 0c-1,0 -3,-1 -3,-2z"/>
  <path class="fil46" d="M7736 1149l0 6c0,2 1,3 2,4 1,1 3,2 4,2l6 0 0 0c2,0 3,-1 4,-2l0 0c1,-1 2,-3 2,-4l0 0 0 -6c0,-2 -1,-3 -2,-4l0 0c-1,-1 -3,-2 -4,-2l0 0 -6 0c-2,0 -3,1 -4,2l0 0c-1,1 -2,3 -2,4zm7 5l0 -4 4 0 0 4 -4 0 0 0z"/>
  <path class="fil28" d="M0 2827c224,-30 434,-43 628,-35 385,13 732,79 1059,175 333,97 648,226 959,361 373,148 727,331 1088,459 370,131 744,202 1140,116 426,-91 834,-388 1220,-744 368,-339 713,-727 1054,-1047 238,-224 457,-367 658,-450l0 -13c-199,84 -416,227 -651,450 -341,322 -686,713 -1056,1055 -388,359 -798,659 -1226,753 -397,87 -774,21 -1146,-107 -365,-124 -722,-305 -1094,-456 -317,-126 -634,-252 -969,-345 -330,-92 -678,-155 -1066,-162 -185,-3 -384,10 -596,40l0 -49z"/>
  <path class="fil22" d="M7804 4060c-86,-62 -171,-124 -254,-186 -342,-238 -642,-488 -942,-679 -294,-187 -593,-323 -948,-348 -394,-27 -869,106 -1402,307 -564,212 -1210,506 -1874,763 -38,15 -75,29 -112,43l-1 6c31,-12 62,-24 93,-36 669,-260 1319,-557 1887,-772 536,-203 1015,-338 1411,-312 357,23 660,156 956,341 302,189 605,436 947,675 78,55 158,111 239,167l0 32z"/>
  <path class="fil31" d="M2341 4806c666,-247 1407,-700 2073,-1142 465,-360 917,-748 1348,-1091 412,-326 808,-614 1194,-806l0 0c324,-143 597,-198 849,-217l0 -19c-247,21 -516,77 -831,214l0 0c-400,200 -807,494 -1225,825 -440,347 -901,741 -1375,1105 -680,447 -1409,895 -2062,1130l29 0z"/>
  <path class="fil22" d="M4373 2727c0,-20 -1,-40 -1,-60 0,-14 14,-29 30,-34 23,-7 45,-13 70,-21 15,-5 30,3 30,16 0,20 1,40 1,59 0,15 -14,30 -30,35 -23,7 -46,14 -69,21 -16,5 -29,-3 -30,-16z"/>
  <path class="fil22" d="M2285 4806c2,-9 7,-20 16,-29 23,-26 47,-52 72,-79 17,-18 39,-25 51,-16 18,15 36,27 54,40 13,10 9,32 -9,52l-29 32 -155 0z"/>
  <path class="fil47" d="M7095 2222c2,-16 3,-32 6,-47 2,-11 -8,-20 -19,-20 -18,1 -35,1 -52,2 -12,0 -24,10 -25,21 -2,16 -5,32 -7,48 -1,11 7,19 20,19 17,0 35,-1 52,-2 13,-1 24,-9 25,-21z"/>
  <path class="fil49" d="M4999 3943c-10,-21 -21,-41 -30,-62 -6,-14 3,-36 20,-48 23,-15 46,-32 71,-48 18,-12 37,-9 44,5 10,20 20,41 30,62 7,14 -1,35 -18,47 -24,17 -49,33 -73,49 -17,12 -36,9 -43,-5z"/>
  <path class="fil22" d="M3472 2434c-5,-10 -9,-20 -14,-31 -3,-7 -13,-8 -24,-3 -15,9 -30,17 -45,26 -10,6 -16,17 -13,24 5,10 8,21 13,32 3,8 14,8 25,2 15,-9 30,-18 45,-26 10,-6 16,-17 13,-24z"/>
  <path class="fil22" d="M1896 3172c0,-20 -2,-40 -1,-60 0,-14 14,-29 30,-34 22,-7 45,-13 70,-21 15,-5 30,3 30,16 0,20 1,40 1,59 0,15 -14,30 -30,35 -23,7 -46,14 -69,21 -17,5 -29,-3 -30,-17z"/>
 </g>
</svg>
